<svg xmlns="http://www.w3.org/2000/svg" xmlns:xlink="http://www.w3.org/1999/xlink" width="500" zoomAndPan="magnify" viewBox="0 0 375 374.999991" height="500" preserveAspectRatio="xMidYMid meet" version="1.0"><defs><g/><clipPath id="dbfc502577"><path d="M 128.097656 115.304688 L 246.597656 115.304688 L 246.597656 196.304688 L 128.097656 196.304688 Z M 128.097656 115.304688 " clip-rule="nonzero"/></clipPath></defs><g fill="#f1f3f5" fill-opacity="1"><g transform="translate(67.183594, 231.544101)"><g><path d="M 6.734375 0 C 5.867188 0 4.859375 0.046875 3.703125 0.140625 C 2.546875 0.242188 1.78125 0.320312 1.40625 0.375 L 1.671875 -2.078125 C 2.722656 -2.273438 3.429688 -2.578125 3.796875 -2.984375 C 4.171875 -3.390625 4.359375 -4.070312 4.359375 -5.03125 L 4.40625 -19.53125 C 4.40625 -20.226562 4.316406 -20.710938 4.140625 -20.984375 C 3.972656 -21.253906 3.664062 -21.390625 3.21875 -21.390625 C 2.96875 -21.390625 2.71875 -21.375 2.46875 -21.34375 C 2.226562 -21.320312 2.0625 -21.3125 1.96875 -21.3125 L 1.703125 -21.609375 L 2.03125 -23.828125 C 2.425781 -23.828125 3.144531 -23.8125 4.1875 -23.78125 C 5.238281 -23.757812 6.222656 -23.75 7.140625 -23.75 C 8.078125 -23.75 9.125 -23.773438 10.28125 -23.828125 C 11.445312 -23.878906 12.265625 -23.914062 12.734375 -23.9375 C 15.265625 -23.9375 17.195312 -23.441406 18.53125 -22.453125 C 19.863281 -21.472656 20.53125 -20.054688 20.53125 -18.203125 C 20.53125 -16.972656 20.175781 -15.878906 19.46875 -14.921875 C 18.769531 -13.972656 17.789062 -13.179688 16.53125 -12.546875 C 18.132812 -12.117188 19.410156 -11.445312 20.359375 -10.53125 C 21.316406 -9.625 21.796875 -8.457031 21.796875 -7.03125 C 21.796875 -5.570312 21.394531 -4.28125 20.59375 -3.15625 C 19.789062 -2.039062 18.664062 -1.171875 17.21875 -0.546875 C 15.78125 0.0664062 14.109375 0.375 12.203125 0.375 C 11.910156 0.375 11.503906 0.347656 10.984375 0.296875 C 10.472656 0.242188 10.082031 0.207031 9.8125 0.1875 C 9.488281 0.15625 8.992188 0.113281 8.328125 0.0625 C 7.660156 0.0195312 7.128906 0 6.734375 0 Z M 9.28125 -13.609375 C 9.582031 -13.585938 10.175781 -13.523438 11.0625 -13.421875 C 11.945312 -13.328125 12.539062 -13.28125 12.84375 -13.28125 C 12.84375 -13.226562 13.082031 -13.359375 13.5625 -13.671875 C 14.039062 -13.984375 14.46875 -14.429688 14.84375 -15.015625 C 15.226562 -15.609375 15.421875 -16.363281 15.421875 -17.28125 C 15.421875 -18.539062 15 -19.460938 14.15625 -20.046875 C 13.320312 -20.640625 12.019531 -20.9375 10.25 -20.9375 C 10 -20.9375 9.832031 -20.882812 9.75 -20.78125 C 9.664062 -20.6875 9.609375 -20.503906 9.578125 -20.234375 C 9.429688 -18.234375 9.332031 -16.023438 9.28125 -13.609375 Z M 9.0625 -4.921875 C 9.0625 -4.128906 9.332031 -3.566406 9.875 -3.234375 C 10.414062 -2.898438 11.316406 -2.734375 12.578125 -2.734375 C 13.785156 -2.734375 14.734375 -3.066406 15.421875 -3.734375 C 16.117188 -4.398438 16.46875 -5.3125 16.46875 -6.46875 C 16.46875 -7.476562 16.140625 -8.320312 15.484375 -9 C 14.828125 -9.6875 13.882812 -10.164062 12.65625 -10.4375 L 9.21875 -10.390625 Z M 9.0625 -4.921875 "/></g></g></g><g fill="#f1f3f5" fill-opacity="1"><g transform="translate(90.380126, 231.544101)"><g><path d="M 14.140625 0.4375 C 13.046875 0.4375 12.1875 0.195312 11.5625 -0.28125 C 10.9375 -0.757812 10.5625 -1.46875 10.4375 -2.40625 L 10.140625 -2.515625 C 9.347656 -1.703125 8.582031 -1.03125 7.84375 -0.5 C 7.101562 0.03125 6.507812 0.296875 6.0625 0.296875 C 4.613281 0.296875 3.40625 -0.210938 2.4375 -1.234375 C 1.476562 -2.265625 1 -3.539062 1 -5.0625 C 1 -5.832031 1.195312 -6.492188 1.59375 -7.046875 C 1.988281 -7.597656 2.503906 -7.960938 3.140625 -8.140625 L 10.28125 -9.8125 L 10.328125 -10.6875 C 10.328125 -11.75 10.039062 -12.578125 9.46875 -13.171875 C 8.90625 -13.765625 8.128906 -14.0625 7.140625 -14.0625 C 6.472656 -14.0625 5.75 -13.894531 4.96875 -13.5625 C 4.195312 -13.226562 3.476562 -12.816406 2.8125 -12.328125 L 2.484375 -12.46875 L 1.84375 -14.6875 C 3.082031 -15.375 4.378906 -16.015625 5.734375 -16.609375 C 7.085938 -17.203125 8.050781 -17.5 8.625 -17.5 C 10.664062 -17.5 12.195312 -17.035156 13.21875 -16.109375 C 14.25 -15.179688 14.765625 -13.96875 14.765625 -12.46875 C 14.765625 -11.925781 14.65625 -10.816406 14.4375 -9.140625 C 14.15625 -6.742188 14.015625 -5.3125 14.015625 -4.84375 C 14.015625 -4.375 14.140625 -4.003906 14.390625 -3.734375 C 14.640625 -3.460938 14.960938 -3.328125 15.359375 -3.328125 C 15.648438 -3.328125 15.960938 -3.394531 16.296875 -3.53125 C 16.628906 -3.664062 16.90625 -3.804688 17.125 -3.953125 L 17.6875 -3.1875 C 17.238281 -2.394531 16.6875 -1.632812 16.03125 -0.90625 C 15.382812 -0.175781 14.753906 0.269531 14.140625 0.4375 Z M 7.4375 -3.21875 C 7.800781 -3.21875 8.238281 -3.316406 8.75 -3.515625 C 9.257812 -3.710938 9.707031 -3.972656 10.09375 -4.296875 L 10.21875 -7.8125 L 6.25 -6.703125 C 5.65625 -6.546875 5.359375 -6.132812 5.359375 -5.46875 C 5.359375 -4.832031 5.550781 -4.296875 5.9375 -3.859375 C 6.320312 -3.429688 6.820312 -3.21875 7.4375 -3.21875 Z M 7.4375 -3.21875 "/></g></g></g><g fill="#f1f3f5" fill-opacity="1"><g transform="translate(108.249227, 231.544101)"><g><path d="M 1.625 -2.109375 C 2.363281 -2.160156 2.863281 -2.359375 3.125 -2.703125 C 3.382812 -3.046875 3.515625 -3.695312 3.515625 -4.65625 L 3.515625 -12.03125 C 3.515625 -12.863281 3.398438 -13.429688 3.171875 -13.734375 C 2.953125 -14.046875 2.535156 -14.203125 1.921875 -14.203125 L 1.21875 -14.171875 L 1.03125 -14.4375 L 1.265625 -16.28125 C 2.566406 -16.5 3.898438 -16.742188 5.265625 -17.015625 C 6.640625 -17.285156 7.523438 -17.457031 7.921875 -17.53125 L 8.25 -17.203125 C 8.195312 -16.984375 8.128906 -16.515625 8.046875 -15.796875 C 7.960938 -15.078125 7.90625 -14.390625 7.875 -13.734375 L 8.109375 -13.578125 C 8.867188 -14.734375 9.710938 -15.628906 10.640625 -16.265625 C 11.566406 -16.910156 12.445312 -17.234375 13.28125 -17.234375 C 13.625 -17.234375 13.90625 -17.222656 14.125 -17.203125 C 14.351562 -17.179688 14.503906 -17.15625 14.578125 -17.125 L 14.71875 -16.828125 C 14.644531 -16.410156 14.519531 -15.503906 14.34375 -14.109375 C 14.175781 -12.722656 14.054688 -11.398438 13.984375 -10.140625 L 11.625 -9.984375 C 11.625 -11.171875 11.554688 -11.953125 11.421875 -12.328125 C 11.285156 -12.710938 11.003906 -12.90625 10.578125 -12.90625 C 10.179688 -12.90625 9.757812 -12.757812 9.3125 -12.46875 C 8.875 -12.175781 8.457031 -11.769531 8.0625 -11.25 C 8.039062 -10.5625 7.984375 -9.429688 7.890625 -7.859375 C 7.804688 -6.296875 7.753906 -5.046875 7.734375 -4.109375 C 7.734375 -3.460938 7.835938 -3.015625 8.046875 -2.765625 C 8.253906 -2.523438 8.628906 -2.40625 9.171875 -2.40625 C 9.546875 -2.40625 9.914062 -2.414062 10.28125 -2.4375 C 10.65625 -2.46875 10.90625 -2.492188 11.03125 -2.515625 L 11.140625 -2.296875 L 10.734375 0.140625 C 10.390625 0.117188 9.753906 0.0859375 8.828125 0.046875 C 7.898438 0.015625 6.941406 0 5.953125 0 C 5.015625 0 4.078125 0.015625 3.140625 0.046875 C 2.203125 0.0859375 1.597656 0.117188 1.328125 0.140625 Z M 1.625 -2.109375 "/></g></g></g><g fill="#f1f3f5" fill-opacity="1"><g transform="translate(123.454613, 231.544101)"><g><path d="M 8.6875 0.375 C 7.832031 0.375 6.972656 0.328125 6.109375 0.234375 C 5.242188 0.148438 4.523438 0.0664062 3.953125 -0.015625 C 3.390625 -0.0976562 3.035156 -0.15625 2.890625 -0.1875 L 2.515625 -0.59375 L 2.515625 -22.125 C 2.515625 -22.914062 2.398438 -23.460938 2.171875 -23.765625 C 1.953125 -24.078125 1.550781 -24.234375 0.96875 -24.234375 C 0.769531 -24.234375 0.59375 -24.21875 0.4375 -24.1875 C 0.289062 -24.164062 0.179688 -24.15625 0.109375 -24.15625 L -0.03125 -24.34375 L 0.1875 -26.265625 C 1.59375 -26.460938 3.070312 -26.691406 4.625 -26.953125 C 6.175781 -27.210938 7.1875 -27.378906 7.65625 -27.453125 L 7.921875 -26.75 C 7.472656 -26.226562 7.148438 -22.316406 6.953125 -15.015625 C 9.222656 -16.617188 10.566406 -17.421875 10.984375 -17.421875 C 13.128906 -17.421875 14.835938 -16.6875 16.109375 -15.21875 C 17.378906 -13.757812 18.015625 -11.769531 18.015625 -9.25 C 18.015625 -7.394531 17.613281 -5.738281 16.8125 -4.28125 C 16.007812 -2.832031 14.90625 -1.691406 13.5 -0.859375 C 12.09375 -0.0351562 10.488281 0.375 8.6875 0.375 Z M 9.546875 -2.625 C 10.734375 -2.625 11.65625 -3.078125 12.3125 -3.984375 C 12.976562 -4.898438 13.3125 -6.1875 13.3125 -7.84375 C 13.3125 -9.695312 12.972656 -11.175781 12.296875 -12.28125 C 11.617188 -13.394531 10.738281 -13.953125 9.65625 -13.953125 C 9.238281 -13.953125 8.769531 -13.828125 8.25 -13.578125 C 7.726562 -13.328125 7.269531 -13.03125 6.875 -12.6875 L 6.765625 -3.21875 C 7.035156 -3.070312 7.441406 -2.9375 7.984375 -2.8125 C 8.535156 -2.6875 9.054688 -2.625 9.546875 -2.625 Z M 9.546875 -2.625 "/></g></g></g><g fill="#f1f3f5" fill-opacity="1"><g transform="translate(142.433596, 231.544101)"><g><path d="M 14.140625 0.4375 C 13.046875 0.4375 12.1875 0.195312 11.5625 -0.28125 C 10.9375 -0.757812 10.5625 -1.46875 10.4375 -2.40625 L 10.140625 -2.515625 C 9.347656 -1.703125 8.582031 -1.03125 7.84375 -0.5 C 7.101562 0.03125 6.507812 0.296875 6.0625 0.296875 C 4.613281 0.296875 3.40625 -0.210938 2.4375 -1.234375 C 1.476562 -2.265625 1 -3.539062 1 -5.0625 C 1 -5.832031 1.195312 -6.492188 1.59375 -7.046875 C 1.988281 -7.597656 2.503906 -7.960938 3.140625 -8.140625 L 10.28125 -9.8125 L 10.328125 -10.6875 C 10.328125 -11.75 10.039062 -12.578125 9.46875 -13.171875 C 8.90625 -13.765625 8.128906 -14.0625 7.140625 -14.0625 C 6.472656 -14.0625 5.75 -13.894531 4.96875 -13.5625 C 4.195312 -13.226562 3.476562 -12.816406 2.8125 -12.328125 L 2.484375 -12.46875 L 1.84375 -14.6875 C 3.082031 -15.375 4.378906 -16.015625 5.734375 -16.609375 C 7.085938 -17.203125 8.050781 -17.5 8.625 -17.5 C 10.664062 -17.5 12.195312 -17.035156 13.21875 -16.109375 C 14.25 -15.179688 14.765625 -13.96875 14.765625 -12.46875 C 14.765625 -11.925781 14.65625 -10.816406 14.4375 -9.140625 C 14.15625 -6.742188 14.015625 -5.3125 14.015625 -4.84375 C 14.015625 -4.375 14.140625 -4.003906 14.390625 -3.734375 C 14.640625 -3.460938 14.960938 -3.328125 15.359375 -3.328125 C 15.648438 -3.328125 15.960938 -3.394531 16.296875 -3.53125 C 16.628906 -3.664062 16.90625 -3.804688 17.125 -3.953125 L 17.6875 -3.1875 C 17.238281 -2.394531 16.6875 -1.632812 16.03125 -0.90625 C 15.382812 -0.175781 14.753906 0.269531 14.140625 0.4375 Z M 7.4375 -3.21875 C 7.800781 -3.21875 8.238281 -3.316406 8.75 -3.515625 C 9.257812 -3.710938 9.707031 -3.972656 10.09375 -4.296875 L 10.21875 -7.8125 L 6.25 -6.703125 C 5.65625 -6.546875 5.359375 -6.132812 5.359375 -5.46875 C 5.359375 -4.832031 5.550781 -4.296875 5.9375 -3.859375 C 6.320312 -3.429688 6.820312 -3.21875 7.4375 -3.21875 Z M 7.4375 -3.21875 "/></g></g></g><g fill="#f1f3f5" fill-opacity="1"><g transform="translate(160.302697, 231.544101)"><g><path d="M 1.625 -2.109375 C 2.363281 -2.160156 2.863281 -2.359375 3.125 -2.703125 C 3.382812 -3.046875 3.515625 -3.695312 3.515625 -4.65625 L 3.515625 -12.03125 C 3.515625 -12.863281 3.398438 -13.429688 3.171875 -13.734375 C 2.953125 -14.046875 2.535156 -14.203125 1.921875 -14.203125 L 1.21875 -14.171875 L 1.03125 -14.4375 L 1.265625 -16.28125 C 2.566406 -16.5 3.898438 -16.742188 5.265625 -17.015625 C 6.640625 -17.285156 7.523438 -17.457031 7.921875 -17.53125 L 8.25 -17.203125 C 8.195312 -16.984375 8.128906 -16.515625 8.046875 -15.796875 C 7.960938 -15.078125 7.90625 -14.390625 7.875 -13.734375 L 8.109375 -13.578125 C 8.867188 -14.734375 9.710938 -15.628906 10.640625 -16.265625 C 11.566406 -16.910156 12.445312 -17.234375 13.28125 -17.234375 C 13.625 -17.234375 13.90625 -17.222656 14.125 -17.203125 C 14.351562 -17.179688 14.503906 -17.15625 14.578125 -17.125 L 14.71875 -16.828125 C 14.644531 -16.410156 14.519531 -15.503906 14.34375 -14.109375 C 14.175781 -12.722656 14.054688 -11.398438 13.984375 -10.140625 L 11.625 -9.984375 C 11.625 -11.171875 11.554688 -11.953125 11.421875 -12.328125 C 11.285156 -12.710938 11.003906 -12.90625 10.578125 -12.90625 C 10.179688 -12.90625 9.757812 -12.757812 9.3125 -12.46875 C 8.875 -12.175781 8.457031 -11.769531 8.0625 -11.25 C 8.039062 -10.5625 7.984375 -9.429688 7.890625 -7.859375 C 7.804688 -6.296875 7.753906 -5.046875 7.734375 -4.109375 C 7.734375 -3.460938 7.835938 -3.015625 8.046875 -2.765625 C 8.253906 -2.523438 8.628906 -2.40625 9.171875 -2.40625 C 9.546875 -2.40625 9.914062 -2.414062 10.28125 -2.4375 C 10.65625 -2.46875 10.90625 -2.492188 11.03125 -2.515625 L 11.140625 -2.296875 L 10.734375 0.140625 C 10.390625 0.117188 9.753906 0.0859375 8.828125 0.046875 C 7.898438 0.015625 6.941406 0 5.953125 0 C 5.015625 0 4.078125 0.015625 3.140625 0.046875 C 2.203125 0.0859375 1.597656 0.117188 1.328125 0.140625 Z M 1.625 -2.109375 "/></g></g></g><g fill="#f1f3f5" fill-opacity="1"><g transform="translate(175.508083, 231.544101)"><g><path d="M 14.140625 0.4375 C 13.046875 0.4375 12.1875 0.195312 11.5625 -0.28125 C 10.9375 -0.757812 10.5625 -1.46875 10.4375 -2.40625 L 10.140625 -2.515625 C 9.347656 -1.703125 8.582031 -1.03125 7.84375 -0.5 C 7.101562 0.03125 6.507812 0.296875 6.0625 0.296875 C 4.613281 0.296875 3.40625 -0.210938 2.4375 -1.234375 C 1.476562 -2.265625 1 -3.539062 1 -5.0625 C 1 -5.832031 1.195312 -6.492188 1.59375 -7.046875 C 1.988281 -7.597656 2.503906 -7.960938 3.140625 -8.140625 L 10.28125 -9.8125 L 10.328125 -10.6875 C 10.328125 -11.75 10.039062 -12.578125 9.46875 -13.171875 C 8.90625 -13.765625 8.128906 -14.0625 7.140625 -14.0625 C 6.472656 -14.0625 5.75 -13.894531 4.96875 -13.5625 C 4.195312 -13.226562 3.476562 -12.816406 2.8125 -12.328125 L 2.484375 -12.46875 L 1.84375 -14.6875 C 3.082031 -15.375 4.378906 -16.015625 5.734375 -16.609375 C 7.085938 -17.203125 8.050781 -17.5 8.625 -17.5 C 10.664062 -17.5 12.195312 -17.035156 13.21875 -16.109375 C 14.25 -15.179688 14.765625 -13.96875 14.765625 -12.46875 C 14.765625 -11.925781 14.65625 -10.816406 14.4375 -9.140625 C 14.15625 -6.742188 14.015625 -5.3125 14.015625 -4.84375 C 14.015625 -4.375 14.140625 -4.003906 14.390625 -3.734375 C 14.640625 -3.460938 14.960938 -3.328125 15.359375 -3.328125 C 15.648438 -3.328125 15.960938 -3.394531 16.296875 -3.53125 C 16.628906 -3.664062 16.90625 -3.804688 17.125 -3.953125 L 17.6875 -3.1875 C 17.238281 -2.394531 16.6875 -1.632812 16.03125 -0.90625 C 15.382812 -0.175781 14.753906 0.269531 14.140625 0.4375 Z M 7.4375 -3.21875 C 7.800781 -3.21875 8.238281 -3.316406 8.75 -3.515625 C 9.257812 -3.710938 9.707031 -3.972656 10.09375 -4.296875 L 10.21875 -7.8125 L 6.25 -6.703125 C 5.65625 -6.546875 5.359375 -6.132812 5.359375 -5.46875 C 5.359375 -4.832031 5.550781 -4.296875 5.9375 -3.859375 C 6.320312 -3.429688 6.820312 -3.21875 7.4375 -3.21875 Z M 7.4375 -3.21875 "/></g></g></g><g fill="#f1f3f5" fill-opacity="1"><g transform="translate(193.377185, 231.544101)"><g/></g></g><g fill="#f1f3f5" fill-opacity="1"><g transform="translate(199.814497, 231.544101)"><g><path d="M 1.671875 -2.078125 C 2.722656 -2.242188 3.425781 -2.546875 3.78125 -2.984375 C 4.144531 -3.429688 4.328125 -4.203125 4.328125 -5.296875 L 4.359375 -19.390625 C 4.359375 -20.179688 4.28125 -20.710938 4.125 -20.984375 C 3.96875 -21.253906 3.65625 -21.390625 3.1875 -21.390625 C 2.9375 -21.390625 2.695312 -21.375 2.46875 -21.34375 C 2.25 -21.320312 2.101562 -21.3125 2.03125 -21.3125 L 1.8125 -21.640625 L 2.109375 -23.859375 C 2.554688 -23.835938 3.414062 -23.8125 4.6875 -23.78125 C 5.957031 -23.757812 7.332031 -23.75 8.8125 -23.75 C 13.863281 -23.75 17.328125 -23.898438 19.203125 -24.203125 L 19.5 -23.796875 C 19.425781 -23.398438 19.296875 -22.53125 19.109375 -21.1875 C 18.921875 -19.84375 18.789062 -18.453125 18.71875 -17.015625 L 15.421875 -16.828125 C 15.421875 -16.953125 15.429688 -17.160156 15.453125 -17.453125 C 15.484375 -17.753906 15.5 -18.054688 15.5 -18.359375 C 15.5 -19.066406 15.40625 -19.582031 15.21875 -19.90625 C 15.039062 -20.226562 14.6875 -20.441406 14.15625 -20.546875 C 13.625 -20.660156 12.753906 -20.71875 11.546875 -20.71875 C 10.898438 -20.71875 10.453125 -20.691406 10.203125 -20.640625 C 9.960938 -20.597656 9.796875 -20.488281 9.703125 -20.3125 C 9.617188 -20.132812 9.566406 -19.851562 9.546875 -19.46875 L 9.28125 -13.03125 L 12.765625 -12.984375 C 13.234375 -12.984375 13.921875 -13.03125 14.828125 -13.125 C 15.742188 -13.226562 16.351562 -13.289062 16.65625 -13.3125 L 16.90625 -12.984375 L 16.390625 -9.84375 C 16.097656 -9.863281 15.523438 -9.882812 14.671875 -9.90625 C 13.816406 -9.9375 12.921875 -9.953125 11.984375 -9.953125 C 11.097656 -9.953125 10.160156 -9.863281 9.171875 -9.6875 L 9.0625 -5.1875 C 9.0625 -4.25 9.164062 -3.617188 9.375 -3.296875 C 9.582031 -2.972656 10.007812 -2.8125 10.65625 -2.8125 C 11.050781 -2.8125 11.503906 -2.832031 12.015625 -2.875 C 12.535156 -2.925781 12.882812 -2.96875 13.0625 -3 L 13.390625 -2.625 L 12.984375 0.140625 C 12.566406 0.117188 11.785156 0.0859375 10.640625 0.046875 C 9.492188 0.015625 8.351562 0 7.21875 0 C 6.082031 0 4.914062 0.0507812 3.71875 0.15625 C 2.519531 0.269531 1.75 0.351562 1.40625 0.40625 Z M 1.671875 -2.078125 "/></g></g></g><g fill="#f1f3f5" fill-opacity="1"><g transform="translate(219.459412, 231.544101)"><g><path d="M 1.625 -2.109375 C 2.363281 -2.160156 2.863281 -2.359375 3.125 -2.703125 C 3.382812 -3.046875 3.515625 -3.695312 3.515625 -4.65625 L 3.515625 -12.03125 C 3.515625 -12.863281 3.398438 -13.429688 3.171875 -13.734375 C 2.953125 -14.046875 2.535156 -14.203125 1.921875 -14.203125 L 1.21875 -14.171875 L 1.03125 -14.4375 L 1.265625 -16.28125 C 2.566406 -16.5 3.898438 -16.742188 5.265625 -17.015625 C 6.640625 -17.285156 7.523438 -17.457031 7.921875 -17.53125 L 8.25 -17.203125 C 8.195312 -16.984375 8.128906 -16.515625 8.046875 -15.796875 C 7.960938 -15.078125 7.90625 -14.390625 7.875 -13.734375 L 8.109375 -13.578125 C 8.867188 -14.734375 9.710938 -15.628906 10.640625 -16.265625 C 11.566406 -16.910156 12.445312 -17.234375 13.28125 -17.234375 C 13.625 -17.234375 13.90625 -17.222656 14.125 -17.203125 C 14.351562 -17.179688 14.503906 -17.15625 14.578125 -17.125 L 14.71875 -16.828125 C 14.644531 -16.410156 14.519531 -15.503906 14.34375 -14.109375 C 14.175781 -12.722656 14.054688 -11.398438 13.984375 -10.140625 L 11.625 -9.984375 C 11.625 -11.171875 11.554688 -11.953125 11.421875 -12.328125 C 11.285156 -12.710938 11.003906 -12.90625 10.578125 -12.90625 C 10.179688 -12.90625 9.757812 -12.757812 9.3125 -12.46875 C 8.875 -12.175781 8.457031 -11.769531 8.0625 -11.25 C 8.039062 -10.5625 7.984375 -9.429688 7.890625 -7.859375 C 7.804688 -6.296875 7.753906 -5.046875 7.734375 -4.109375 C 7.734375 -3.460938 7.835938 -3.015625 8.046875 -2.765625 C 8.253906 -2.523438 8.628906 -2.40625 9.171875 -2.40625 C 9.546875 -2.40625 9.914062 -2.414062 10.28125 -2.4375 C 10.65625 -2.46875 10.90625 -2.492188 11.03125 -2.515625 L 11.140625 -2.296875 L 10.734375 0.140625 C 10.390625 0.117188 9.753906 0.0859375 8.828125 0.046875 C 7.898438 0.015625 6.941406 0 5.953125 0 C 5.015625 0 4.078125 0.015625 3.140625 0.046875 C 2.203125 0.0859375 1.597656 0.117188 1.328125 0.140625 Z M 1.625 -2.109375 "/></g></g></g><g fill="#f1f3f5" fill-opacity="1"><g transform="translate(234.664798, 231.544101)"><g><path d="M 9.328125 0.4375 C 6.734375 0.4375 4.691406 -0.316406 3.203125 -1.828125 C 1.710938 -3.347656 0.96875 -5.425781 0.96875 -8.0625 C 0.96875 -9.84375 1.347656 -11.445312 2.109375 -12.875 C 2.867188 -14.300781 3.914062 -15.425781 5.25 -16.25 C 6.582031 -17.082031 8.0625 -17.5 9.6875 -17.5 C 13.832031 -17.5 15.90625 -15.40625 15.90625 -11.21875 C 15.90625 -10.46875 15.820312 -9.773438 15.65625 -9.140625 L 15.203125 -8.6875 L 5.625 -8.6875 C 5.644531 -6.894531 6.066406 -5.519531 6.890625 -4.5625 C 7.722656 -3.613281 8.878906 -3.140625 10.359375 -3.140625 C 11.640625 -3.140625 13.109375 -3.507812 14.765625 -4.25 L 15.015625 -4.109375 L 15.609375 -2.296875 C 14.703125 -1.609375 13.648438 -0.976562 12.453125 -0.40625 C 11.253906 0.15625 10.210938 0.4375 9.328125 0.4375 Z M 10.6875 -11.03125 C 10.988281 -11.050781 11.179688 -11.109375 11.265625 -11.203125 C 11.347656 -11.304688 11.390625 -11.53125 11.390625 -11.875 C 11.390625 -13.695312 10.613281 -14.609375 9.0625 -14.609375 C 8.101562 -14.609375 7.320312 -14.273438 6.71875 -13.609375 C 6.113281 -12.941406 5.75 -11.984375 5.625 -10.734375 Z M 10.6875 -11.03125 "/></g></g></g><g fill="#f1f3f5" fill-opacity="1"><g transform="translate(251.756983, 231.544101)"><g><path d="M 1.296875 -1.921875 C 2.015625 -2.046875 2.535156 -2.285156 2.859375 -2.640625 C 3.191406 -3.003906 3.359375 -3.53125 3.359375 -4.21875 L 3.359375 -12.203125 C 3.359375 -12.992188 3.25 -13.535156 3.03125 -13.828125 C 2.8125 -14.128906 2.40625 -14.28125 1.8125 -14.28125 C 1.632812 -14.28125 1.457031 -14.265625 1.28125 -14.234375 C 1.113281 -14.210938 1.007812 -14.191406 0.96875 -14.171875 L 1.1875 -16.28125 C 2.5625 -16.476562 3.960938 -16.707031 5.390625 -16.96875 C 6.828125 -17.226562 7.753906 -17.40625 8.171875 -17.5 L 8.515625 -16.90625 C 8.242188 -16.363281 8.023438 -14.878906 7.859375 -12.453125 C 7.703125 -10.023438 7.625 -7.171875 7.625 -3.890625 C 7.625 -3.296875 7.707031 -2.875 7.875 -2.625 C 8.050781 -2.375 8.347656 -2.25 8.765625 -2.25 C 8.992188 -2.25 9.210938 -2.257812 9.421875 -2.28125 C 9.628906 -2.3125 9.769531 -2.328125 9.84375 -2.328125 L 9.953125 -2.140625 L 9.578125 0.109375 C 9.304688 0.0859375 8.769531 0.0625 7.96875 0.03125 C 7.164062 0.0078125 6.347656 0 5.515625 0 C 4.742188 0 3.867188 0.0507812 2.890625 0.15625 C 1.921875 0.269531 1.289062 0.351562 1 0.40625 Z M 5.1875 -20.6875 C 4.375 -20.6875 3.742188 -20.921875 3.296875 -21.390625 C 2.859375 -21.859375 2.640625 -22.484375 2.640625 -23.265625 C 2.640625 -24.160156 2.898438 -24.878906 3.421875 -25.421875 C 3.953125 -25.960938 4.664062 -26.234375 5.5625 -26.234375 C 6.34375 -26.234375 6.957031 -25.992188 7.40625 -25.515625 C 7.851562 -25.035156 8.078125 -24.398438 8.078125 -23.609375 C 8.078125 -22.742188 7.8125 -22.039062 7.28125 -21.5 C 6.75 -20.957031 6.050781 -20.6875 5.1875 -20.6875 Z M 5.1875 -20.6875 "/></g></g></g><g fill="#f1f3f5" fill-opacity="1"><g transform="translate(262.559839, 231.544101)"><g><path d="M 7.625 0.4375 C 5.875 0.4375 4.585938 0.078125 3.765625 -0.640625 C 2.953125 -1.367188 2.546875 -2.523438 2.546875 -4.109375 L 2.546875 -12.359375 C 2.546875 -13.148438 2.410156 -13.671875 2.140625 -13.921875 C 1.867188 -14.179688 1.34375 -14.328125 0.5625 -14.359375 L 0.1875 -14.609375 L 0.4375 -16.421875 C 1.375 -16.867188 2.300781 -17.378906 3.21875 -17.953125 C 4.132812 -18.535156 4.894531 -19.050781 5.5 -19.5 C 6.101562 -19.945312 6.476562 -20.226562 6.625 -20.34375 L 7.65625 -19.828125 C 7.632812 -19.679688 7.578125 -19.320312 7.484375 -18.75 C 7.398438 -18.1875 7.320312 -17.488281 7.25 -16.65625 L 11.625 -16.765625 L 11.765625 -16.578125 L 11.390625 -14.09375 L 7.03125 -14.203125 C 6.882812 -12.054688 6.8125 -9.367188 6.8125 -6.140625 C 6.8125 -5.078125 6.992188 -4.3125 7.359375 -3.84375 C 7.734375 -3.375 8.335938 -3.140625 9.171875 -3.140625 C 9.617188 -3.140625 10.070312 -3.210938 10.53125 -3.359375 C 10.988281 -3.515625 11.273438 -3.613281 11.390625 -3.65625 L 11.875 -2.484375 C 11.726562 -2.328125 11.375 -2.015625 10.8125 -1.546875 C 10.257812 -1.078125 9.671875 -0.628906 9.046875 -0.203125 C 8.421875 0.222656 7.945312 0.4375 7.625 0.4375 Z M 7.625 0.4375 "/></g></g></g><g fill="#f1f3f5" fill-opacity="1"><g transform="translate(274.84253, 231.544101)"><g><path d="M 14.140625 0.4375 C 13.046875 0.4375 12.1875 0.195312 11.5625 -0.28125 C 10.9375 -0.757812 10.5625 -1.46875 10.4375 -2.40625 L 10.140625 -2.515625 C 9.347656 -1.703125 8.582031 -1.03125 7.84375 -0.5 C 7.101562 0.03125 6.507812 0.296875 6.0625 0.296875 C 4.613281 0.296875 3.40625 -0.210938 2.4375 -1.234375 C 1.476562 -2.265625 1 -3.539062 1 -5.0625 C 1 -5.832031 1.195312 -6.492188 1.59375 -7.046875 C 1.988281 -7.597656 2.503906 -7.960938 3.140625 -8.140625 L 10.28125 -9.8125 L 10.328125 -10.6875 C 10.328125 -11.75 10.039062 -12.578125 9.46875 -13.171875 C 8.90625 -13.765625 8.128906 -14.0625 7.140625 -14.0625 C 6.472656 -14.0625 5.75 -13.894531 4.96875 -13.5625 C 4.195312 -13.226562 3.476562 -12.816406 2.8125 -12.328125 L 2.484375 -12.46875 L 1.84375 -14.6875 C 3.082031 -15.375 4.378906 -16.015625 5.734375 -16.609375 C 7.085938 -17.203125 8.050781 -17.5 8.625 -17.5 C 10.664062 -17.5 12.195312 -17.035156 13.21875 -16.109375 C 14.25 -15.179688 14.765625 -13.96875 14.765625 -12.46875 C 14.765625 -11.925781 14.65625 -10.816406 14.4375 -9.140625 C 14.15625 -6.742188 14.015625 -5.3125 14.015625 -4.84375 C 14.015625 -4.375 14.140625 -4.003906 14.390625 -3.734375 C 14.640625 -3.460938 14.960938 -3.328125 15.359375 -3.328125 C 15.648438 -3.328125 15.960938 -3.394531 16.296875 -3.53125 C 16.628906 -3.664062 16.90625 -3.804688 17.125 -3.953125 L 17.6875 -3.1875 C 17.238281 -2.394531 16.6875 -1.632812 16.03125 -0.90625 C 15.382812 -0.175781 14.753906 0.269531 14.140625 0.4375 Z M 7.4375 -3.21875 C 7.800781 -3.21875 8.238281 -3.316406 8.75 -3.515625 C 9.257812 -3.710938 9.707031 -3.972656 10.09375 -4.296875 L 10.21875 -7.8125 L 6.25 -6.703125 C 5.65625 -6.546875 5.359375 -6.132812 5.359375 -5.46875 C 5.359375 -4.832031 5.550781 -4.296875 5.9375 -3.859375 C 6.320312 -3.429688 6.820312 -3.21875 7.4375 -3.21875 Z M 7.4375 -3.21875 "/></g></g></g><g fill="#f1f3f5" fill-opacity="1"><g transform="translate(292.711631, 231.544101)"><g><path d="M 6.296875 0.4375 C 5.398438 0.4375 4.585938 0.363281 3.859375 0.21875 C 3.140625 0.0703125 2.566406 -0.078125 2.140625 -0.234375 C 1.722656 -0.398438 1.46875 -0.507812 1.375 -0.5625 L 1.140625 -0.921875 C 1.242188 -1.585938 1.335938 -2.363281 1.421875 -3.25 C 1.503906 -4.144531 1.570312 -5 1.625 -5.8125 L 3.65625 -6 C 3.6875 -3.5 4.785156 -2.25 6.953125 -2.25 C 7.671875 -2.25 8.265625 -2.40625 8.734375 -2.71875 C 9.203125 -3.03125 9.4375 -3.421875 9.4375 -3.890625 C 9.4375 -4.378906 9.1875 -4.828125 8.6875 -5.234375 C 8.195312 -5.640625 7.210938 -6.203125 5.734375 -6.921875 C 4.253906 -7.609375 3.179688 -8.335938 2.515625 -9.109375 C 1.847656 -9.890625 1.515625 -10.800781 1.515625 -11.84375 C 1.515625 -12.945312 1.832031 -13.925781 2.46875 -14.78125 C 3.113281 -15.632812 4.015625 -16.300781 5.171875 -16.78125 C 6.335938 -17.257812 7.660156 -17.5 9.140625 -17.5 C 9.859375 -17.5 10.523438 -17.445312 11.140625 -17.34375 C 11.753906 -17.25 12.238281 -17.144531 12.59375 -17.03125 C 12.957031 -16.925781 13.1875 -16.859375 13.28125 -16.828125 L 13.46875 -16.46875 C 13.414062 -16.195312 13.304688 -15.582031 13.140625 -14.625 C 12.984375 -13.675781 12.859375 -12.695312 12.765625 -11.6875 L 10.6875 -11.546875 L 10.734375 -12.203125 C 10.734375 -13.066406 10.519531 -13.703125 10.09375 -14.109375 C 9.675781 -14.515625 9.023438 -14.71875 8.140625 -14.71875 C 7.492188 -14.71875 6.945312 -14.5625 6.5 -14.25 C 6.0625 -13.945312 5.84375 -13.5625 5.84375 -13.09375 C 5.84375 -12.625 6.039062 -12.191406 6.4375 -11.796875 C 6.832031 -11.410156 7.488281 -10.992188 8.40625 -10.546875 C 9.851562 -9.859375 10.960938 -9.238281 11.734375 -8.6875 C 12.515625 -8.144531 13.0625 -7.597656 13.375 -7.046875 C 13.6875 -6.492188 13.84375 -5.832031 13.84375 -5.0625 C 13.84375 -4.050781 13.507812 -3.125 12.84375 -2.28125 C 12.175781 -1.445312 11.257812 -0.785156 10.09375 -0.296875 C 8.9375 0.191406 7.671875 0.4375 6.296875 0.4375 Z M 6.296875 0.4375 "/></g></g></g><g fill="#ff8585" fill-opacity="1"><g transform="translate(117.905529, 255.49409)"><g><path d="M 15.515625 -12.65625 C 15.804688 -12.65625 16.070312 -12.539062 16.3125 -12.3125 C 16.5625 -12.09375 16.6875 -11.816406 16.6875 -11.484375 C 16.6875 -11.378906 16.664062 -11.257812 16.625 -11.125 L 13.078125 -0.6875 C 13.015625 -0.476562 12.890625 -0.3125 12.703125 -0.1875 C 12.523438 -0.0703125 12.328125 -0.0078125 12.109375 0 C 11.898438 0 11.695312 -0.0546875 11.5 -0.171875 C 11.3125 -0.296875 11.160156 -0.472656 11.046875 -0.703125 L 8.5 -6.515625 L 5.921875 -0.703125 C 5.816406 -0.472656 5.664062 -0.296875 5.46875 -0.171875 C 5.28125 -0.0546875 5.078125 0 4.859375 0 C 4.640625 -0.0078125 4.441406 -0.0703125 4.265625 -0.1875 C 4.085938 -0.3125 3.960938 -0.476562 3.890625 -0.6875 L 0.34375 -11.125 C 0.300781 -11.257812 0.28125 -11.378906 0.28125 -11.484375 C 0.28125 -11.816406 0.40625 -12.09375 0.65625 -12.3125 C 0.90625 -12.539062 1.175781 -12.65625 1.46875 -12.65625 C 1.71875 -12.65625 1.9375 -12.59375 2.125 -12.46875 C 2.3125 -12.34375 2.441406 -12.171875 2.515625 -11.953125 L 5.203125 -3.8125 L 7.546875 -9.4375 C 7.640625 -9.644531 7.773438 -9.8125 7.953125 -9.9375 C 8.128906 -10.070312 8.332031 -10.128906 8.5625 -10.109375 C 8.789062 -10.128906 8.992188 -10.070312 9.171875 -9.9375 C 9.347656 -9.8125 9.484375 -9.644531 9.578125 -9.4375 L 11.796875 -3.875 L 14.453125 -11.953125 C 14.523438 -12.171875 14.660156 -12.34375 14.859375 -12.46875 C 15.054688 -12.59375 15.273438 -12.65625 15.515625 -12.65625 Z M 15.515625 -12.65625 "/></g></g></g><g fill="#ff8585" fill-opacity="1"><g transform="translate(135.401475, 255.49409)"><g><path d="M 9.8125 -5.046875 C 9.800781 -4.753906 9.6875 -4.515625 9.46875 -4.328125 C 9.25 -4.148438 9 -4.0625 8.71875 -4.0625 L 2.765625 -4.0625 C 2.910156 -3.351562 3.238281 -2.796875 3.75 -2.390625 C 4.269531 -1.992188 4.859375 -1.796875 5.515625 -1.796875 C 6.003906 -1.796875 6.382812 -1.835938 6.65625 -1.921875 C 6.9375 -2.015625 7.15625 -2.113281 7.3125 -2.21875 C 7.476562 -2.320312 7.59375 -2.394531 7.65625 -2.4375 C 7.863281 -2.539062 8.066406 -2.59375 8.265625 -2.59375 C 8.515625 -2.59375 8.726562 -2.5 8.90625 -2.3125 C 9.09375 -2.132812 9.1875 -1.925781 9.1875 -1.6875 C 9.1875 -1.363281 9.015625 -1.070312 8.671875 -0.8125 C 8.335938 -0.53125 7.890625 -0.289062 7.328125 -0.09375 C 6.765625 0.09375 6.191406 0.1875 5.609375 0.1875 C 4.609375 0.1875 3.734375 -0.0195312 2.984375 -0.4375 C 2.234375 -0.863281 1.648438 -1.445312 1.234375 -2.1875 C 0.828125 -2.925781 0.625 -3.757812 0.625 -4.6875 C 0.625 -5.71875 0.835938 -6.617188 1.265625 -7.390625 C 1.703125 -8.171875 2.273438 -8.769531 2.984375 -9.1875 C 3.691406 -9.601562 4.445312 -9.8125 5.25 -9.8125 C 6.039062 -9.8125 6.785156 -9.59375 7.484375 -9.15625 C 8.191406 -8.726562 8.753906 -8.144531 9.171875 -7.40625 C 9.597656 -6.675781 9.8125 -5.890625 9.8125 -5.046875 Z M 5.25 -7.828125 C 3.863281 -7.828125 3.046875 -7.175781 2.796875 -5.875 L 7.5 -5.875 L 7.5 -6 C 7.457031 -6.5 7.210938 -6.925781 6.765625 -7.28125 C 6.328125 -7.644531 5.820312 -7.828125 5.25 -7.828125 Z M 5.25 -7.828125 "/></g></g></g><g fill="#ff8585" fill-opacity="1"><g transform="translate(146.363441, 255.49409)"><g><path d="M 6.15625 -9.8125 C 6.976562 -9.8125 7.722656 -9.597656 8.390625 -9.171875 C 9.066406 -8.742188 9.597656 -8.148438 9.984375 -7.390625 C 10.378906 -6.640625 10.578125 -5.785156 10.578125 -4.828125 C 10.578125 -3.867188 10.382812 -3.003906 10 -2.234375 C 9.625 -1.472656 9.101562 -0.878906 8.4375 -0.453125 C 7.769531 -0.0234375 7.035156 0.1875 6.234375 0.1875 C 5.648438 0.1875 5.101562 0.0703125 4.59375 -0.15625 C 4.082031 -0.394531 3.660156 -0.6875 3.328125 -1.03125 L 3.328125 -0.921875 C 3.328125 -0.609375 3.222656 -0.34375 3.015625 -0.125 C 2.816406 0.0820312 2.5625 0.1875 2.25 0.1875 C 1.9375 0.1875 1.675781 0.0820312 1.46875 -0.125 C 1.269531 -0.332031 1.171875 -0.597656 1.171875 -0.921875 L 1.171875 -12.21875 C 1.171875 -12.53125 1.269531 -12.789062 1.46875 -13 C 1.675781 -13.207031 1.9375 -13.3125 2.25 -13.3125 C 2.5625 -13.3125 2.816406 -13.207031 3.015625 -13 C 3.222656 -12.789062 3.328125 -12.53125 3.328125 -12.21875 L 3.328125 -8.453125 C 3.617188 -8.816406 4.019531 -9.132812 4.53125 -9.40625 C 5.050781 -9.675781 5.59375 -9.8125 6.15625 -9.8125 Z M 5.890625 -1.796875 C 6.648438 -1.796875 7.273438 -2.082031 7.765625 -2.65625 C 8.265625 -3.238281 8.515625 -3.960938 8.515625 -4.828125 C 8.515625 -5.691406 8.269531 -6.40625 7.78125 -6.96875 C 7.300781 -7.539062 6.671875 -7.828125 5.890625 -7.828125 C 5.109375 -7.828125 4.46875 -7.539062 3.96875 -6.96875 C 3.476562 -6.40625 3.234375 -5.691406 3.234375 -4.828125 C 3.234375 -3.960938 3.476562 -3.238281 3.96875 -2.65625 C 4.46875 -2.082031 5.109375 -1.796875 5.890625 -1.796875 Z M 5.890625 -1.796875 "/></g></g></g><g fill="#ff8585" fill-opacity="1"><g transform="translate(158.099405, 255.49409)"><g/></g></g><g fill="#ff8585" fill-opacity="1"><g transform="translate(163.661397, 255.49409)"><g><path d="M 6.75 -12.59375 C 7.875 -12.59375 8.84375 -12.3125 9.65625 -11.75 C 10.46875 -11.195312 11.085938 -10.441406 11.515625 -9.484375 C 11.941406 -8.535156 12.15625 -7.472656 12.15625 -6.296875 C 12.15625 -5.117188 11.941406 -4.050781 11.515625 -3.09375 C 11.085938 -2.144531 10.46875 -1.390625 9.65625 -0.828125 C 8.84375 -0.273438 7.875 0 6.75 0 L 2.453125 0 C 2.140625 0 1.875 -0.101562 1.65625 -0.3125 C 1.445312 -0.519531 1.34375 -0.78125 1.34375 -1.09375 L 1.34375 -11.5 C 1.34375 -11.8125 1.445312 -12.070312 1.65625 -12.28125 C 1.875 -12.488281 2.140625 -12.59375 2.453125 -12.59375 Z M 6.5625 -2.0625 C 7.644531 -2.0625 8.457031 -2.460938 9 -3.265625 C 9.539062 -4.066406 9.8125 -5.078125 9.8125 -6.296875 C 9.8125 -7.523438 9.535156 -8.535156 8.984375 -9.328125 C 8.441406 -10.128906 7.632812 -10.53125 6.5625 -10.53125 L 3.59375 -10.53125 L 3.59375 -2.0625 Z M 6.5625 -2.0625 "/></g></g></g><g fill="#ff8585" fill-opacity="1"><g transform="translate(177.053352, 255.49409)"><g><path d="M 9.8125 -5.046875 C 9.800781 -4.753906 9.6875 -4.515625 9.46875 -4.328125 C 9.25 -4.148438 9 -4.0625 8.71875 -4.0625 L 2.765625 -4.0625 C 2.910156 -3.351562 3.238281 -2.796875 3.75 -2.390625 C 4.269531 -1.992188 4.859375 -1.796875 5.515625 -1.796875 C 6.003906 -1.796875 6.382812 -1.835938 6.65625 -1.921875 C 6.9375 -2.015625 7.15625 -2.113281 7.3125 -2.21875 C 7.476562 -2.320312 7.59375 -2.394531 7.65625 -2.4375 C 7.863281 -2.539062 8.066406 -2.59375 8.265625 -2.59375 C 8.515625 -2.59375 8.726562 -2.5 8.90625 -2.3125 C 9.09375 -2.132812 9.1875 -1.925781 9.1875 -1.6875 C 9.1875 -1.363281 9.015625 -1.070312 8.671875 -0.8125 C 8.335938 -0.53125 7.890625 -0.289062 7.328125 -0.09375 C 6.765625 0.09375 6.191406 0.1875 5.609375 0.1875 C 4.609375 0.1875 3.734375 -0.0195312 2.984375 -0.4375 C 2.234375 -0.863281 1.648438 -1.445312 1.234375 -2.1875 C 0.828125 -2.925781 0.625 -3.757812 0.625 -4.6875 C 0.625 -5.71875 0.835938 -6.617188 1.265625 -7.390625 C 1.703125 -8.171875 2.273438 -8.769531 2.984375 -9.1875 C 3.691406 -9.601562 4.445312 -9.8125 5.25 -9.8125 C 6.039062 -9.8125 6.785156 -9.59375 7.484375 -9.15625 C 8.191406 -8.726562 8.753906 -8.144531 9.171875 -7.40625 C 9.597656 -6.675781 9.8125 -5.890625 9.8125 -5.046875 Z M 5.25 -7.828125 C 3.863281 -7.828125 3.046875 -7.175781 2.796875 -5.875 L 7.5 -5.875 L 7.5 -6 C 7.457031 -6.5 7.210938 -6.925781 6.765625 -7.28125 C 6.328125 -7.644531 5.820312 -7.828125 5.25 -7.828125 Z M 5.25 -7.828125 "/></g></g></g><g fill="#ff8585" fill-opacity="1"><g transform="translate(188.015315, 255.49409)"><g><path d="M 8.5625 -9.609375 C 8.851562 -9.609375 9.09375 -9.515625 9.28125 -9.328125 C 9.476562 -9.140625 9.578125 -8.910156 9.578125 -8.640625 C 9.578125 -8.492188 9.53125 -8.3125 9.4375 -8.09375 L 6.0625 -0.6875 C 5.976562 -0.476562 5.851562 -0.3125 5.6875 -0.1875 C 5.53125 -0.0703125 5.347656 -0.0078125 5.140625 0 L 4.984375 0.015625 C 4.785156 0.015625 4.597656 -0.046875 4.421875 -0.171875 C 4.242188 -0.296875 4.109375 -0.46875 4.015625 -0.6875 L 0.671875 -8.09375 C 0.585938 -8.289062 0.546875 -8.484375 0.546875 -8.671875 C 0.546875 -8.910156 0.644531 -9.128906 0.84375 -9.328125 C 1.050781 -9.523438 1.304688 -9.625 1.609375 -9.625 C 1.828125 -9.625 2.03125 -9.5625 2.21875 -9.4375 C 2.414062 -9.320312 2.5625 -9.160156 2.65625 -8.953125 L 5.140625 -3.265625 L 7.609375 -8.921875 C 7.710938 -9.148438 7.847656 -9.320312 8.015625 -9.4375 C 8.179688 -9.5625 8.363281 -9.617188 8.5625 -9.609375 Z M 8.5625 -9.609375 "/></g></g></g><g fill="#ff8585" fill-opacity="1"><g transform="translate(198.653284, 255.49409)"><g><path d="M 9.8125 -5.046875 C 9.800781 -4.753906 9.6875 -4.515625 9.46875 -4.328125 C 9.25 -4.148438 9 -4.0625 8.71875 -4.0625 L 2.765625 -4.0625 C 2.910156 -3.351562 3.238281 -2.796875 3.75 -2.390625 C 4.269531 -1.992188 4.859375 -1.796875 5.515625 -1.796875 C 6.003906 -1.796875 6.382812 -1.835938 6.65625 -1.921875 C 6.9375 -2.015625 7.15625 -2.113281 7.3125 -2.21875 C 7.476562 -2.320312 7.59375 -2.394531 7.65625 -2.4375 C 7.863281 -2.539062 8.066406 -2.59375 8.265625 -2.59375 C 8.515625 -2.59375 8.726562 -2.5 8.90625 -2.3125 C 9.09375 -2.132812 9.1875 -1.925781 9.1875 -1.6875 C 9.1875 -1.363281 9.015625 -1.070312 8.671875 -0.8125 C 8.335938 -0.53125 7.890625 -0.289062 7.328125 -0.09375 C 6.765625 0.09375 6.191406 0.1875 5.609375 0.1875 C 4.609375 0.1875 3.734375 -0.0195312 2.984375 -0.4375 C 2.234375 -0.863281 1.648438 -1.445312 1.234375 -2.1875 C 0.828125 -2.925781 0.625 -3.757812 0.625 -4.6875 C 0.625 -5.71875 0.835938 -6.617188 1.265625 -7.390625 C 1.703125 -8.171875 2.273438 -8.769531 2.984375 -9.1875 C 3.691406 -9.601562 4.445312 -9.8125 5.25 -9.8125 C 6.039062 -9.8125 6.785156 -9.59375 7.484375 -9.15625 C 8.191406 -8.726562 8.753906 -8.144531 9.171875 -7.40625 C 9.597656 -6.675781 9.8125 -5.890625 9.8125 -5.046875 Z M 5.25 -7.828125 C 3.863281 -7.828125 3.046875 -7.175781 2.796875 -5.875 L 7.5 -5.875 L 7.5 -6 C 7.457031 -6.5 7.210938 -6.925781 6.765625 -7.28125 C 6.328125 -7.644531 5.820312 -7.828125 5.25 -7.828125 Z M 5.25 -7.828125 "/></g></g></g><g fill="#ff8585" fill-opacity="1"><g transform="translate(209.615247, 255.49409)"><g><path d="M 3.515625 -1.09375 C 3.515625 -0.78125 3.40625 -0.519531 3.1875 -0.3125 C 2.976562 -0.101562 2.71875 0 2.40625 0 C 2.113281 0 1.863281 -0.101562 1.65625 -0.3125 C 1.445312 -0.519531 1.34375 -0.78125 1.34375 -1.09375 L 1.34375 -12.21875 C 1.34375 -12.53125 1.445312 -12.789062 1.65625 -13 C 1.875 -13.207031 2.140625 -13.3125 2.453125 -13.3125 C 2.742188 -13.3125 2.992188 -13.207031 3.203125 -13 C 3.410156 -12.789062 3.515625 -12.53125 3.515625 -12.21875 Z M 3.515625 -1.09375 "/></g></g></g><g fill="#ff8585" fill-opacity="1"><g transform="translate(214.997232, 255.49409)"><g><path d="M 10.421875 -4.8125 C 10.421875 -3.84375 10.203125 -2.976562 9.765625 -2.21875 C 9.335938 -1.457031 8.75 -0.863281 8 -0.4375 C 7.25 -0.0195312 6.425781 0.1875 5.53125 0.1875 C 4.613281 0.1875 3.78125 -0.0195312 3.03125 -0.4375 C 2.289062 -0.863281 1.703125 -1.457031 1.265625 -2.21875 C 0.835938 -2.976562 0.625 -3.84375 0.625 -4.8125 C 0.625 -5.769531 0.835938 -6.628906 1.265625 -7.390625 C 1.703125 -8.148438 2.289062 -8.742188 3.03125 -9.171875 C 3.78125 -9.597656 4.613281 -9.8125 5.53125 -9.8125 C 6.425781 -9.8125 7.25 -9.597656 8 -9.171875 C 8.75 -8.742188 9.335938 -8.148438 9.765625 -7.390625 C 10.203125 -6.628906 10.421875 -5.769531 10.421875 -4.8125 Z M 8.265625 -4.8125 C 8.265625 -5.394531 8.140625 -5.914062 7.890625 -6.375 C 7.648438 -6.84375 7.320312 -7.203125 6.90625 -7.453125 C 6.488281 -7.703125 6.03125 -7.828125 5.53125 -7.828125 C 5.019531 -7.828125 4.554688 -7.703125 4.140625 -7.453125 C 3.734375 -7.203125 3.40625 -6.84375 3.15625 -6.375 C 2.914062 -5.914062 2.796875 -5.394531 2.796875 -4.8125 C 2.796875 -4.21875 2.914062 -3.691406 3.15625 -3.234375 C 3.40625 -2.785156 3.734375 -2.429688 4.140625 -2.171875 C 4.554688 -1.921875 5.019531 -1.796875 5.53125 -1.796875 C 6.03125 -1.796875 6.488281 -1.921875 6.90625 -2.171875 C 7.320312 -2.429688 7.648438 -2.785156 7.890625 -3.234375 C 8.140625 -3.691406 8.265625 -4.21875 8.265625 -4.8125 Z M 8.265625 -4.8125 "/></g></g></g><g fill="#ff8585" fill-opacity="1"><g transform="translate(226.571202, 255.49409)"><g><path d="M 6.15625 -9.8125 C 6.976562 -9.8125 7.722656 -9.597656 8.390625 -9.171875 C 9.066406 -8.742188 9.597656 -8.148438 9.984375 -7.390625 C 10.378906 -6.640625 10.578125 -5.785156 10.578125 -4.828125 C 10.578125 -3.867188 10.382812 -3.003906 10 -2.234375 C 9.625 -1.472656 9.101562 -0.878906 8.4375 -0.453125 C 7.769531 -0.0234375 7.035156 0.1875 6.234375 0.1875 C 5.648438 0.1875 5.101562 0.0703125 4.59375 -0.15625 C 4.082031 -0.394531 3.660156 -0.6875 3.328125 -1.03125 L 3.328125 2.5 C 3.328125 2.8125 3.222656 3.070312 3.015625 3.28125 C 2.816406 3.488281 2.5625 3.59375 2.25 3.59375 C 1.9375 3.59375 1.675781 3.488281 1.46875 3.28125 C 1.269531 3.082031 1.171875 2.820312 1.171875 2.5 L 1.171875 -8.53125 C 1.171875 -8.84375 1.269531 -9.101562 1.46875 -9.3125 C 1.675781 -9.519531 1.9375 -9.625 2.25 -9.625 C 2.5625 -9.625 2.816406 -9.519531 3.015625 -9.3125 C 3.222656 -9.101562 3.328125 -8.84375 3.328125 -8.53125 L 3.328125 -8.453125 C 3.617188 -8.816406 4.019531 -9.132812 4.53125 -9.40625 C 5.050781 -9.675781 5.59375 -9.8125 6.15625 -9.8125 Z M 5.890625 -1.796875 C 6.648438 -1.796875 7.273438 -2.082031 7.765625 -2.65625 C 8.265625 -3.238281 8.515625 -3.960938 8.515625 -4.828125 C 8.515625 -5.691406 8.269531 -6.40625 7.78125 -6.96875 C 7.300781 -7.539062 6.671875 -7.828125 5.890625 -7.828125 C 5.109375 -7.828125 4.46875 -7.539062 3.96875 -6.96875 C 3.476562 -6.40625 3.234375 -5.691406 3.234375 -4.828125 C 3.234375 -3.960938 3.476562 -3.238281 3.96875 -2.65625 C 4.46875 -2.082031 5.109375 -1.796875 5.890625 -1.796875 Z M 5.890625 -1.796875 "/></g></g></g><g fill="#ff8585" fill-opacity="1"><g transform="translate(238.307163, 255.49409)"><g><path d="M 9.8125 -5.046875 C 9.800781 -4.753906 9.6875 -4.515625 9.46875 -4.328125 C 9.25 -4.148438 9 -4.0625 8.71875 -4.0625 L 2.765625 -4.0625 C 2.910156 -3.351562 3.238281 -2.796875 3.75 -2.390625 C 4.269531 -1.992188 4.859375 -1.796875 5.515625 -1.796875 C 6.003906 -1.796875 6.382812 -1.835938 6.65625 -1.921875 C 6.9375 -2.015625 7.15625 -2.113281 7.3125 -2.21875 C 7.476562 -2.320312 7.59375 -2.394531 7.65625 -2.4375 C 7.863281 -2.539062 8.066406 -2.59375 8.265625 -2.59375 C 8.515625 -2.59375 8.726562 -2.5 8.90625 -2.3125 C 9.09375 -2.132812 9.1875 -1.925781 9.1875 -1.6875 C 9.1875 -1.363281 9.015625 -1.070312 8.671875 -0.8125 C 8.335938 -0.53125 7.890625 -0.289062 7.328125 -0.09375 C 6.765625 0.09375 6.191406 0.1875 5.609375 0.1875 C 4.609375 0.1875 3.734375 -0.0195312 2.984375 -0.4375 C 2.234375 -0.863281 1.648438 -1.445312 1.234375 -2.1875 C 0.828125 -2.925781 0.625 -3.757812 0.625 -4.6875 C 0.625 -5.71875 0.835938 -6.617188 1.265625 -7.390625 C 1.703125 -8.171875 2.273438 -8.769531 2.984375 -9.1875 C 3.691406 -9.601562 4.445312 -9.8125 5.25 -9.8125 C 6.039062 -9.8125 6.785156 -9.59375 7.484375 -9.15625 C 8.191406 -8.726562 8.753906 -8.144531 9.171875 -7.40625 C 9.597656 -6.675781 9.8125 -5.890625 9.8125 -5.046875 Z M 5.25 -7.828125 C 3.863281 -7.828125 3.046875 -7.175781 2.796875 -5.875 L 7.5 -5.875 L 7.5 -6 C 7.457031 -6.5 7.210938 -6.925781 6.765625 -7.28125 C 6.328125 -7.644531 5.820312 -7.828125 5.25 -7.828125 Z M 5.25 -7.828125 "/></g></g></g><g fill="#ff8585" fill-opacity="1"><g transform="translate(249.269126, 255.49409)"><g><path d="M 6.171875 -9.8125 C 6.535156 -9.8125 6.835938 -9.707031 7.078125 -9.5 C 7.328125 -9.300781 7.453125 -9.0625 7.453125 -8.78125 C 7.453125 -8.40625 7.351562 -8.125 7.15625 -7.9375 C 6.96875 -7.757812 6.742188 -7.671875 6.484375 -7.671875 C 6.296875 -7.671875 6.09375 -7.710938 5.875 -7.796875 C 5.832031 -7.804688 5.75 -7.828125 5.625 -7.859375 C 5.5 -7.898438 5.363281 -7.921875 5.21875 -7.921875 C 4.90625 -7.921875 4.601562 -7.820312 4.3125 -7.625 C 4.03125 -7.4375 3.796875 -7.144531 3.609375 -6.75 C 3.421875 -6.363281 3.328125 -5.898438 3.328125 -5.359375 L 3.328125 -1.09375 C 3.328125 -0.78125 3.222656 -0.519531 3.015625 -0.3125 C 2.816406 -0.101562 2.5625 0 2.25 0 C 1.9375 0 1.675781 -0.101562 1.46875 -0.3125 C 1.269531 -0.519531 1.171875 -0.78125 1.171875 -1.09375 L 1.171875 -8.53125 C 1.171875 -8.84375 1.269531 -9.101562 1.46875 -9.3125 C 1.675781 -9.519531 1.9375 -9.625 2.25 -9.625 C 2.5625 -9.625 2.816406 -9.519531 3.015625 -9.3125 C 3.222656 -9.101562 3.328125 -8.84375 3.328125 -8.53125 L 3.328125 -8.296875 C 3.609375 -8.785156 4.003906 -9.160156 4.515625 -9.421875 C 5.035156 -9.679688 5.585938 -9.8125 6.171875 -9.8125 Z M 6.171875 -9.8125 "/></g></g></g><g clip-path="url(#dbfc502577)"><path fill="#ff8585" d="M 231.859375 192.601562 L 143.136719 192.601562 C 137.863281 192.601562 133.484375 188.765625 132.621094 183.730469 L 242.363281 183.730469 C 241.519531 188.765625 237.132812 192.601562 231.859375 192.601562 Z M 139.351562 121.128906 C 139.351562 119.851562 140.347656 118.839844 141.628906 118.839844 L 233.347656 118.839844 C 234.625 118.839844 235.636719 119.851562 235.636719 121.128906 L 235.636719 180.15625 L 139.351562 180.15625 Z M 244.289062 180.175781 L 239.203125 180.175781 L 239.203125 121.128906 C 239.203125 117.917969 236.59375 115.296875 233.359375 115.296875 L 141.628906 115.296875 C 138.414062 115.296875 135.792969 117.917969 135.792969 121.128906 L 135.792969 180.15625 L 130.707031 180.15625 C 129.722656 180.175781 128.929688 180.964844 128.929688 181.953125 C 128.929688 189.785156 135.304688 196.160156 143.136719 196.160156 L 231.859375 196.160156 C 239.691406 196.160156 246.066406 189.785156 246.066406 181.953125 C 246.066406 180.964844 245.285156 180.175781 244.289062 180.175781 " fill-opacity="1" fill-rule="nonzero"/></g><path fill="#ff8585" d="M 225.453125 172.25 L 149.542969 172.25 L 149.542969 126.859375 L 225.445312 126.859375 L 225.445312 172.25 Z M 227.234375 123.3125 L 147.761719 123.3125 C 146.773438 123.3125 145.984375 124.101562 145.984375 125.089844 L 145.984375 174.03125 C 145.984375 175.015625 146.773438 175.808594 147.761719 175.808594 L 227.210938 175.808594 C 228.199219 175.808594 228.992188 175.015625 228.992188 174.03125 L 228.992188 125.089844 C 229.011719 124.101562 228.199219 123.3125 227.234375 123.3125 " fill-opacity="1" fill-rule="nonzero"/><path fill="#ff8585" d="M 182.496094 163.652344 C 182.703125 163.722656 182.890625 163.753906 183.089844 163.753906 C 183.816406 163.753906 184.492188 163.296875 184.753906 162.570312 L 193.476562 137.714844 C 193.808594 136.78125 193.3125 135.769531 192.40625 135.449219 C 191.46875 135.117188 190.460938 135.617188 190.128906 136.53125 L 181.402344 161.382812 C 181.09375 162.308594 181.589844 163.320312 182.496094 163.652344 Z M 210.230469 149.925781 L 198.355469 159.335938 C 197.585938 159.9375 197.449219 161.050781 198.0625 161.820312 C 198.40625 162.257812 198.9375 162.496094 199.445312 162.496094 C 199.832031 162.496094 200.214844 162.371094 200.550781 162.113281 L 214.171875 151.328125 C 214.585938 151.007812 214.847656 150.484375 214.847656 149.957031 C 214.847656 149.425781 214.597656 148.914062 214.183594 148.574219 L 199.996094 137 C 199.226562 136.386719 198.117188 136.488281 197.511719 137.257812 C 196.886719 138.027344 197.003906 139.140625 197.761719 139.742188 Z M 174.449219 162.113281 C 174.78125 162.371094 175.164062 162.496094 175.550781 162.496094 C 176.078125 162.496094 176.589844 162.257812 176.933594 161.820312 C 177.546875 161.050781 177.410156 159.9375 176.640625 159.335938 L 164.765625 149.925781 L 177.234375 139.742188 C 177.992188 139.128906 178.109375 138.007812 177.484375 137.257812 C 176.871094 136.488281 175.746094 136.386719 175 137 L 160.8125 148.574219 C 160.398438 148.914062 160.148438 149.40625 160.148438 149.957031 C 160.148438 150.484375 160.410156 151.007812 160.835938 151.328125 L 174.449219 162.113281 " fill-opacity="1" fill-rule="nonzero"/></svg>