<svg width="170" height="102" viewBox="0 0 170 102" fill="none" xmlns="http://www.w3.org/2000/svg">
<g clip-path="url(#clip0_84_951)">
<path d="M170 0H0V102H170V0Z" fill="white"/>
<path d="M170 0H0V102H170V0Z" fill="white"/>
<path d="M170 0H0V102H170V0Z" fill="#212529"/>
<path d="M24.8417 74.9943C24.3792 74.9943 23.8417 75.0193 23.225 75.0693C22.6083 75.1235 22.2 75.1652 22 75.1943L22.1417 73.886C22.7021 73.7818 23.0792 73.6193 23.275 73.4027C23.475 73.186 23.575 72.8235 23.575 72.311L23.6 64.5777C23.6 64.2068 23.5521 63.9485 23.4583 63.8027C23.3687 63.6589 23.2042 63.586 22.9667 63.586C22.8333 63.586 22.7 63.5943 22.5667 63.611C22.4375 63.6235 22.35 63.6277 22.3 63.6277L22.1583 63.4693L22.3333 62.286C22.5437 62.286 22.9271 62.2943 23.4833 62.311C24.0438 62.3235 24.5687 62.3277 25.0583 62.3277C25.5583 62.3277 26.1167 62.3152 26.7333 62.286C27.3542 62.2589 27.7917 62.2402 28.0417 62.2277C29.3917 62.2277 30.4208 62.4922 31.1333 63.0193C31.8438 63.5422 32.2 64.2985 32.2 65.286C32.2 65.9422 32.0104 66.5256 31.6333 67.036C31.2604 67.5422 30.7375 67.9652 30.0667 68.3027C30.9208 68.5318 31.6021 68.8902 32.1083 69.3777C32.6188 69.861 32.875 70.4839 32.875 71.2443C32.875 72.0235 32.6604 72.711 32.2333 73.311C31.8042 73.9068 31.2042 74.3693 30.4333 74.7027C29.6667 75.0297 28.775 75.1943 27.7583 75.1943C27.6021 75.1943 27.3854 75.1797 27.1083 75.1527C26.8354 75.1235 26.6271 75.1047 26.4833 75.0943C26.3104 75.0777 26.0458 75.0547 25.6917 75.0277C25.3354 75.0047 25.0521 74.9943 24.8417 74.9943ZM26.2 67.736C26.3604 67.7485 26.6771 67.7818 27.15 67.836C27.6208 67.886 27.9375 67.911 28.1 67.911C28.1 67.9402 28.2271 67.8693 28.4833 67.7027C28.7375 67.536 28.9667 67.2985 29.1667 66.986C29.3708 66.6693 29.475 66.2672 29.475 65.7777C29.475 65.1068 29.25 64.6152 28.8 64.3027C28.3542 63.986 27.6604 63.8277 26.7167 63.8277C26.5833 63.8277 26.4938 63.8568 26.45 63.911C26.4042 63.961 26.375 64.0589 26.3583 64.2027C26.2792 65.2693 26.2271 66.4485 26.2 67.736ZM26.0833 72.3693C26.0833 72.7922 26.2271 73.0922 26.5167 73.2693C26.8042 73.4485 27.2854 73.536 27.9583 73.536C28.6021 73.536 29.1083 73.3589 29.475 73.0027C29.8458 72.6485 30.0333 72.161 30.0333 71.5443C30.0333 71.0068 29.8583 70.5568 29.5083 70.1943C29.1583 69.8277 28.6542 69.5735 28 69.4277L26.1667 69.4527L26.0833 72.3693Z" fill="#F1F3F5"/>
<path d="M41.1632 75.2277C40.5798 75.2277 40.1215 75.0985 39.7882 74.8443C39.4548 74.5902 39.2548 74.211 39.1882 73.711L39.0298 73.6527C38.6069 74.086 38.1986 74.4443 37.8048 74.7277C37.409 75.011 37.0923 75.1527 36.8548 75.1527C36.0819 75.1527 35.4382 74.8818 34.9215 74.336C34.409 73.786 34.1548 73.1068 34.1548 72.2943C34.1548 71.8839 34.259 71.5318 34.4715 71.236C34.6819 70.9423 34.9569 70.7485 35.2965 70.6527L39.1048 69.761L39.1298 69.2943C39.1298 68.7277 38.9757 68.286 38.6715 67.9693C38.3715 67.6527 37.9569 67.4943 37.4298 67.4943C37.0736 67.4943 36.6882 67.5839 36.2715 67.761C35.859 67.9402 35.4757 68.1589 35.1215 68.4193L34.9465 68.3443L34.6048 67.161C35.2653 66.7943 35.9569 66.4527 36.6798 66.136C37.4007 65.8193 37.9153 65.661 38.2215 65.661C39.309 65.661 40.1257 65.9089 40.6715 66.4027C41.2215 66.8985 41.4965 67.5443 41.4965 68.3443C41.4965 68.6339 41.4382 69.2256 41.3215 70.1193C41.1715 71.3985 41.0965 72.161 41.0965 72.411C41.0965 72.661 41.1632 72.8589 41.2965 73.0027C41.4298 73.1485 41.6007 73.2193 41.8132 73.2193C41.9673 73.2193 42.134 73.1839 42.3132 73.111C42.4903 73.0402 42.6382 72.9652 42.7548 72.886L43.0548 73.2943C42.8153 73.7173 42.5215 74.1235 42.1715 74.511C41.8257 74.9006 41.4903 75.1381 41.1632 75.2277ZM37.5882 73.2777C37.7819 73.2777 38.0153 73.2256 38.2882 73.1193C38.559 73.0152 38.7986 72.8756 39.0048 72.7027L39.0715 70.8277L36.9548 71.4193C36.6382 71.5027 36.4798 71.7235 36.4798 72.0777C36.4798 72.4173 36.5819 72.7027 36.7882 72.936C36.9923 73.1652 37.259 73.2777 37.5882 73.2777Z" fill="#F1F3F5"/>
<path d="M44.0184 73.8693C44.4121 73.8423 44.6788 73.736 44.8184 73.5527C44.9559 73.3693 45.0267 73.0235 45.0267 72.511V68.5777C45.0267 68.1339 44.9642 67.8318 44.8434 67.6693C44.7267 67.5027 44.5038 67.4193 44.1767 67.4193L43.8017 67.436L43.7017 67.2943L43.8267 66.311C44.5204 66.1943 45.2309 66.0652 45.96 65.9193C46.6934 65.7756 47.1642 65.6839 47.3767 65.6443L47.5517 65.8193C47.5225 65.936 47.4871 66.186 47.4434 66.5693C47.3975 66.9527 47.3684 67.3193 47.3517 67.6693L47.4767 67.7527C47.8809 67.136 48.3309 66.6589 48.8267 66.3193C49.3204 65.9756 49.7892 65.8027 50.235 65.8027C50.4184 65.8027 50.5684 65.8089 50.685 65.8193C50.8059 65.8318 50.8871 65.8443 50.9267 65.861L51.0017 66.0193C50.9621 66.2423 50.8954 66.7256 50.8017 67.4693C50.7121 68.2089 50.6475 68.9152 50.61 69.586L49.3517 69.6693C49.3517 69.036 49.3142 68.6193 49.2434 68.4193C49.1704 68.2152 49.0204 68.111 48.7934 68.111C48.5809 68.111 48.3559 68.1902 48.1184 68.3443C47.885 68.5006 47.6621 68.7173 47.4517 68.9943C47.4392 69.361 47.41 69.9652 47.36 70.8027C47.3142 71.636 47.2871 72.3027 47.2767 72.8027C47.2767 73.1485 47.3309 73.386 47.4434 73.5193C47.5538 73.6485 47.7538 73.711 48.0434 73.711C48.2434 73.711 48.4392 73.7068 48.635 73.6943C48.835 73.6777 48.9684 73.6652 49.035 73.6527L49.0934 73.7693L48.8767 75.0693C48.6934 75.0568 48.3538 75.0402 47.86 75.0193C47.3642 75.0027 46.8538 74.9943 46.3267 74.9943C45.8267 74.9943 45.3267 75.0027 44.8267 75.0193C44.3267 75.0402 44.0038 75.0568 43.86 75.0693L44.0184 73.8693Z" fill="#F1F3F5"/>
<path d="M55.8946 75.1943C55.4383 75.1943 54.98 75.1693 54.5196 75.1193C54.0571 75.0735 53.6737 75.0297 53.3696 74.986C53.0696 74.9422 52.88 74.911 52.8029 74.8943L52.6029 74.6777V63.1943C52.6029 62.7735 52.5404 62.4818 52.4196 62.3193C52.3029 62.1527 52.0883 62.0693 51.7779 62.0693C51.6717 62.0693 51.5779 62.0777 51.4946 62.0943C51.4154 62.1068 51.3571 62.111 51.3196 62.111L51.2446 62.011L51.3612 60.986C52.1112 60.8818 52.8987 60.7589 53.7279 60.6193C54.555 60.4818 55.0946 60.3922 55.3446 60.3527L55.4862 60.7277C55.2467 61.0068 55.0737 63.0922 54.9696 66.986C56.18 66.1318 56.8967 65.7027 57.1196 65.7027C58.2633 65.7027 59.1737 66.0943 59.8529 66.8777C60.53 67.6568 60.8696 68.7172 60.8696 70.061C60.8696 71.0506 60.655 71.9339 60.2279 72.711C59.7987 73.4839 59.2112 74.0922 58.4612 74.536C57.7112 74.9756 56.855 75.1943 55.8946 75.1943ZM56.3529 73.5943C56.9862 73.5943 57.4779 73.3527 57.8279 72.8693C58.1821 72.3818 58.3612 71.6943 58.3612 70.811C58.3612 69.8235 58.18 69.0339 57.8196 68.4443C57.4571 67.8506 56.9883 67.5527 56.4112 67.5527C56.1883 67.5527 55.9383 67.6193 55.6612 67.7527C55.3821 67.886 55.1383 68.0443 54.9279 68.2277L54.8696 73.2777C55.0133 73.3568 55.23 73.4277 55.5196 73.4943C55.8133 73.561 56.0904 73.5943 56.3529 73.5943Z" fill="#F1F3F5"/>
<path d="M68.925 75.2277C68.3417 75.2277 67.8834 75.0985 67.55 74.8443C67.2167 74.5902 67.0167 74.211 66.95 73.711L66.7917 73.6527C66.3688 74.086 65.9604 74.4443 65.5667 74.7277C65.1709 75.011 64.8542 75.1527 64.6167 75.1527C63.8438 75.1527 63.2 74.8818 62.6834 74.336C62.1709 73.786 61.9167 73.1068 61.9167 72.2943C61.9167 71.8839 62.0209 71.5318 62.2334 71.236C62.4438 70.9423 62.7188 70.7485 63.0584 70.6527L66.8667 69.761L66.8917 69.2943C66.8917 68.7277 66.7375 68.286 66.4334 67.9693C66.1334 67.6527 65.7188 67.4943 65.1917 67.4943C64.8354 67.4943 64.45 67.5839 64.0334 67.761C63.6209 67.9402 63.2375 68.1589 62.8834 68.4193L62.7084 68.3443L62.3667 67.161C63.0271 66.7943 63.7188 66.4527 64.4417 66.136C65.1625 65.8193 65.6771 65.661 65.9834 65.661C67.0709 65.661 67.8875 65.9089 68.4334 66.4027C68.9834 66.8985 69.2584 67.5443 69.2584 68.3443C69.2584 68.6339 69.2 69.2256 69.0834 70.1193C68.9334 71.3985 68.8584 72.161 68.8584 72.411C68.8584 72.661 68.925 72.8589 69.0584 73.0027C69.1917 73.1485 69.3625 73.2193 69.575 73.2193C69.7292 73.2193 69.8959 73.1839 70.075 73.111C70.2521 73.0402 70.4 72.9652 70.5167 72.886L70.8167 73.2943C70.5771 73.7173 70.2834 74.1235 69.9334 74.511C69.5875 74.9006 69.2521 75.1381 68.925 75.2277ZM65.35 73.2777C65.5438 73.2777 65.7771 73.2256 66.05 73.1193C66.3209 73.0152 66.5604 72.8756 66.7667 72.7027L66.8334 70.8277L64.7167 71.4193C64.4 71.5027 64.2417 71.7235 64.2417 72.0777C64.2417 72.4173 64.3438 72.7027 64.55 72.936C64.7542 73.1652 65.0209 73.2777 65.35 73.2777Z" fill="#F1F3F5"/>
<path d="M71.7802 73.8693C72.1739 73.8423 72.4406 73.736 72.5802 73.5527C72.7177 73.3693 72.7885 73.0235 72.7885 72.511V68.5777C72.7885 68.1339 72.726 67.8318 72.6052 67.6693C72.4885 67.5027 72.2656 67.4193 71.9385 67.4193L71.5635 67.436L71.4635 67.2943L71.5885 66.311C72.2823 66.1943 72.9927 66.0652 73.7219 65.9193C74.4552 65.7756 74.926 65.6839 75.1385 65.6443L75.3135 65.8193C75.2844 65.936 75.2489 66.186 75.2052 66.5693C75.1594 66.9527 75.1302 67.3193 75.1135 67.6693L75.2385 67.7527C75.6427 67.136 76.0927 66.6589 76.5885 66.3193C77.0823 65.9756 77.551 65.8027 77.9969 65.8027C78.1802 65.8027 78.3302 65.8089 78.4469 65.8193C78.5677 65.8318 78.6489 65.8443 78.6885 65.861L78.7635 66.0193C78.7239 66.2423 78.6573 66.7256 78.5635 67.4693C78.4739 68.2089 78.4094 68.9152 78.3719 69.586L77.1135 69.6693C77.1135 69.036 77.076 68.6193 77.0052 68.4193C76.9323 68.2152 76.7823 68.111 76.5552 68.111C76.3427 68.111 76.1177 68.1902 75.8802 68.3443C75.6469 68.5006 75.4239 68.7173 75.2135 68.9943C75.201 69.361 75.1719 69.9652 75.1219 70.8027C75.076 71.636 75.0489 72.3027 75.0385 72.8027C75.0385 73.1485 75.0927 73.386 75.2052 73.5193C75.3156 73.6485 75.5156 73.711 75.8052 73.711C76.0052 73.711 76.201 73.7068 76.3969 73.6943C76.5969 73.6777 76.7302 73.6652 76.7969 73.6527L76.8552 73.7693L76.6385 75.0693C76.4552 75.0568 76.1156 75.0402 75.6219 75.0193C75.126 75.0027 74.6156 74.9943 74.0885 74.9943C73.5885 74.9943 73.0885 75.0027 72.5885 75.0193C72.0885 75.0402 71.7656 75.0568 71.6219 75.0693L71.7802 73.8693Z" fill="#F1F3F5"/>
<path d="M86.5647 75.2277C85.9814 75.2277 85.5231 75.0985 85.1897 74.8443C84.8564 74.5902 84.6564 74.211 84.5897 73.711L84.4314 73.6527C84.0085 74.086 83.6001 74.4443 83.2064 74.7277C82.8106 75.011 82.4939 75.1527 82.2564 75.1527C81.4835 75.1527 80.8397 74.8818 80.3231 74.336C79.8106 73.786 79.5564 73.1068 79.5564 72.2943C79.5564 71.8839 79.6606 71.5318 79.8731 71.236C80.0835 70.9423 80.3585 70.7485 80.6981 70.6527L84.5064 69.761L84.5314 69.2943C84.5314 68.7277 84.3772 68.286 84.0731 67.9693C83.7731 67.6527 83.3585 67.4943 82.8314 67.4943C82.4751 67.4943 82.0897 67.5839 81.6731 67.761C81.2606 67.9402 80.8772 68.1589 80.5231 68.4193L80.3481 68.3443L80.0064 67.161C80.6668 66.7943 81.3585 66.4527 82.0814 66.136C82.8022 65.8193 83.3168 65.661 83.6231 65.661C84.7106 65.661 85.5272 65.9089 86.0731 66.4027C86.6231 66.8985 86.8981 67.5443 86.8981 68.3443C86.8981 68.6339 86.8397 69.2256 86.7231 70.1193C86.5731 71.3985 86.4981 72.161 86.4981 72.411C86.4981 72.661 86.5647 72.8589 86.6981 73.0027C86.8314 73.1485 87.0022 73.2193 87.2147 73.2193C87.3689 73.2193 87.5356 73.1839 87.7147 73.111C87.8918 73.0402 88.0397 72.9652 88.1564 72.886L88.4564 73.2943C88.2168 73.7173 87.9231 74.1235 87.5731 74.511C87.2272 74.9006 86.8918 75.1381 86.5647 75.2277ZM82.9897 73.2777C83.1835 73.2777 83.4168 73.2256 83.6897 73.1193C83.9606 73.0152 84.2001 72.8756 84.4064 72.7027L84.4731 70.8277L82.3564 71.4193C82.0397 71.5027 81.8814 71.7235 81.8814 72.0777C81.8814 72.4173 81.9835 72.7027 82.1897 72.936C82.3939 73.1652 82.6606 73.2777 82.9897 73.2777Z" fill="#F1F3F5"/>
<path d="M92.8782 73.886C93.4386 73.7985 93.8136 73.636 94.0032 73.4027C94.1969 73.1652 94.2948 72.7527 94.2948 72.1693L94.3115 64.6527C94.3115 64.2318 94.2698 63.9485 94.1865 63.8027C94.1032 63.6589 93.9365 63.586 93.6865 63.586C93.5532 63.586 93.424 63.5943 93.3032 63.611C93.1865 63.6235 93.1073 63.6277 93.0698 63.6277L92.9532 63.4527L93.1115 62.2693C93.349 62.2818 93.8073 62.2943 94.4865 62.311C95.1636 62.3235 95.8969 62.3277 96.6865 62.3277C99.3803 62.3277 101.228 62.2485 102.228 62.086L102.387 62.3027C102.347 62.5152 102.278 62.9777 102.178 63.6943C102.078 64.411 102.007 65.1527 101.97 65.9193L100.212 66.0193C100.212 65.9527 100.216 65.8422 100.228 65.686C100.245 65.5256 100.253 65.3652 100.253 65.2027C100.253 64.8256 100.203 64.5506 100.103 64.3777C100.007 64.2068 99.8198 64.0922 99.5365 64.036C99.2532 63.9756 98.7886 63.9443 98.1448 63.9443C97.799 63.9443 97.5615 63.9589 97.4282 63.986C97.299 64.0089 97.2115 64.0672 97.1615 64.161C97.1157 64.2568 97.0886 64.4068 97.0782 64.611L96.9365 68.0443L98.7948 68.0693C99.0448 68.0693 99.4115 68.0443 99.8948 67.9943C100.382 67.9402 100.707 67.9068 100.87 67.8943L101.003 68.0693L100.728 69.7443C100.572 69.7339 100.266 69.7235 99.8115 69.711C99.3553 69.6943 98.8782 69.686 98.3782 69.686C97.9053 69.686 97.4053 69.7339 96.8782 69.8277L96.8198 72.2277C96.8198 72.7277 96.874 73.0652 96.9865 73.236C97.0969 73.4089 97.324 73.4943 97.6698 73.4943C97.8803 73.4943 98.1219 73.4839 98.3948 73.461C98.6719 73.4339 98.8573 73.411 98.9532 73.3943L99.1282 73.5943L98.9115 75.0693C98.6886 75.0568 98.2719 75.0402 97.6615 75.0193C97.049 75.0027 96.4407 74.9943 95.8365 74.9943C95.2303 74.9943 94.6073 75.0214 93.9698 75.0777C93.3303 75.1381 92.9198 75.1818 92.7365 75.211L92.8782 73.886Z" fill="#F1F3F5"/>
<path d="M103.33 73.8693C103.724 73.8423 103.991 73.736 104.13 73.5527C104.268 73.3693 104.339 73.0235 104.339 72.511V68.5777C104.339 68.1339 104.276 67.8318 104.155 67.6693C104.039 67.5027 103.816 67.4193 103.489 67.4193L103.114 67.436L103.014 67.2943L103.139 66.311C103.833 66.1943 104.543 66.0652 105.272 65.9193C106.005 65.7756 106.476 65.6839 106.689 65.6443L106.864 65.8193C106.835 65.936 106.799 66.186 106.755 66.5693C106.71 66.9527 106.68 67.3193 106.664 67.6693L106.789 67.7527C107.193 67.136 107.643 66.6589 108.139 66.3193C108.633 65.9756 109.101 65.8027 109.547 65.8027C109.73 65.8027 109.88 65.8089 109.997 65.8193C110.118 65.8318 110.199 65.8443 110.239 65.861L110.314 66.0193C110.274 66.2423 110.208 66.7256 110.114 67.4693C110.024 68.2089 109.96 68.9152 109.922 69.586L108.664 69.6693C108.664 69.036 108.626 68.6193 108.555 68.4193C108.483 68.2152 108.333 68.111 108.105 68.111C107.893 68.111 107.668 68.1902 107.43 68.3443C107.197 68.5006 106.974 68.7173 106.764 68.9943C106.751 69.361 106.722 69.9652 106.672 70.8027C106.626 71.636 106.599 72.3027 106.589 72.8027C106.589 73.1485 106.643 73.386 106.755 73.5193C106.866 73.6485 107.066 73.711 107.355 73.711C107.555 73.711 107.751 73.7068 107.947 73.6943C108.147 73.6777 108.28 73.6652 108.347 73.6527L108.405 73.7693L108.189 75.0693C108.005 75.0568 107.666 75.0402 107.172 75.0193C106.676 75.0027 106.166 74.9943 105.639 74.9943C105.139 74.9943 104.639 75.0027 104.139 75.0193C103.639 75.0402 103.316 75.0568 103.172 75.0693L103.33 73.8693Z" fill="#F1F3F5"/>
<path d="M115.548 75.2277C114.165 75.2277 113.075 74.8256 112.282 74.0193C111.486 73.2089 111.09 72.1006 111.09 70.6943C111.09 69.7443 111.292 68.8902 111.698 68.1277C112.102 67.3673 112.661 66.7673 113.373 66.3277C114.084 65.8839 114.873 65.661 115.74 65.661C117.95 65.661 119.057 66.7777 119.057 69.011C119.057 69.411 119.011 69.7818 118.923 70.1193L118.682 70.361H113.573C113.584 71.3173 113.809 72.0506 114.248 72.561C114.692 73.0673 115.309 73.3193 116.098 73.3193C116.782 73.3193 117.565 73.1235 118.448 72.7277L118.582 72.8027L118.898 73.7693C118.415 74.136 117.852 74.4735 117.215 74.7777C116.575 75.0777 116.019 75.2277 115.548 75.2277ZM116.273 69.111C116.434 69.1006 116.536 69.0693 116.582 69.0193C116.625 68.9652 116.648 68.8443 116.648 68.661C116.648 67.6902 116.234 67.2027 115.407 67.2027C114.894 67.2027 114.477 67.3818 114.157 67.736C113.834 68.0923 113.64 68.6027 113.573 69.2693L116.273 69.111Z" fill="#F1F3F5"/>
<path d="M120.381 73.9694C120.764 73.9027 121.041 73.7756 121.214 73.586C121.391 73.3923 121.481 73.111 121.481 72.7444V68.486C121.481 68.0652 121.422 67.7756 121.306 67.6194C121.189 67.4589 120.972 67.3777 120.656 67.3777C120.56 67.3777 120.466 67.386 120.372 67.4027C120.283 67.4152 120.227 67.4256 120.206 67.436L120.322 66.311C121.056 66.2069 121.802 66.0839 122.564 65.9444C123.331 65.8069 123.825 65.711 124.047 65.661L124.231 65.9777C124.085 66.2673 123.968 67.0589 123.881 68.3527C123.797 69.6485 123.756 71.1694 123.756 72.9194C123.756 73.236 123.8 73.461 123.889 73.5944C123.983 73.7277 124.141 73.7944 124.364 73.7944C124.485 73.7944 124.602 73.7902 124.714 73.7777C124.825 73.761 124.9 73.7527 124.939 73.7527L124.997 73.8527L124.797 75.0527C124.652 75.0402 124.366 75.0277 123.939 75.011C123.51 74.9985 123.075 74.9944 122.631 74.9944C122.218 74.9944 121.752 75.0214 121.231 75.0777C120.714 75.1381 120.377 75.1819 120.222 75.211L120.381 73.9694ZM122.456 63.961C122.022 63.961 121.685 63.836 121.447 63.586C121.214 63.336 121.097 63.0027 121.097 62.586C121.097 62.1089 121.235 61.7256 121.514 61.436C121.797 61.1485 122.177 61.0027 122.656 61.0027C123.072 61.0027 123.4 61.1319 123.639 61.386C123.877 61.6423 123.997 61.9819 123.997 62.4027C123.997 62.8652 123.856 63.2402 123.572 63.5277C123.289 63.8173 122.916 63.961 122.456 63.961Z" fill="#F1F3F5"/>
<path d="M129.517 75.2277C128.584 75.2277 127.897 75.036 127.459 74.6527C127.026 74.2652 126.809 73.6485 126.809 72.8027V68.4027C126.809 67.9818 126.736 67.7027 126.592 67.5693C126.447 67.4318 126.167 67.3527 125.751 67.336L125.551 67.2027L125.684 66.236C126.184 65.9985 126.678 65.7256 127.167 65.4193C127.655 65.1089 128.061 64.8339 128.384 64.5943C128.705 64.3568 128.905 64.2068 128.984 64.1443L129.534 64.4193C129.522 64.4985 129.492 64.6902 129.442 64.9943C129.397 65.2943 129.355 65.6673 129.317 66.111L131.651 66.0527L131.726 66.1527L131.526 67.4777L129.201 67.4193C129.122 68.5652 129.084 69.9985 129.084 71.7193C129.084 72.286 129.18 72.6943 129.376 72.9443C129.576 73.1943 129.897 73.3193 130.342 73.3193C130.58 73.3193 130.822 73.2818 131.067 73.2027C131.311 73.1193 131.463 73.0673 131.526 73.0443L131.784 73.6693C131.705 73.7527 131.517 73.9193 131.217 74.1693C130.922 74.4193 130.609 74.6589 130.276 74.886C129.942 75.1131 129.688 75.2277 129.517 75.2277Z" fill="#F1F3F5"/>
<path d="M139.543 75.2277C138.96 75.2277 138.501 75.0985 138.168 74.8443C137.835 74.5902 137.635 74.211 137.568 73.711L137.41 73.6527C136.987 74.086 136.579 74.4443 136.185 74.7277C135.789 75.011 135.472 75.1527 135.235 75.1527C134.462 75.1527 133.818 74.8818 133.301 74.336C132.789 73.786 132.535 73.1068 132.535 72.2943C132.535 71.8839 132.639 71.5318 132.851 71.236C133.062 70.9423 133.337 70.7485 133.676 70.6527L137.485 69.761L137.51 69.2943C137.51 68.7277 137.356 68.286 137.051 67.9693C136.751 67.6527 136.337 67.4943 135.81 67.4943C135.454 67.4943 135.068 67.5839 134.651 67.761C134.239 67.9402 133.856 68.1589 133.501 68.4193L133.326 68.3443L132.985 67.161C133.645 66.7943 134.337 66.4527 135.06 66.136C135.781 65.8193 136.295 65.661 136.601 65.661C137.689 65.661 138.506 65.9089 139.051 66.4027C139.601 66.8985 139.876 67.5443 139.876 68.3443C139.876 68.6339 139.818 69.2256 139.701 70.1193C139.551 71.3985 139.476 72.161 139.476 72.411C139.476 72.661 139.543 72.8589 139.676 73.0027C139.81 73.1485 139.981 73.2193 140.193 73.2193C140.347 73.2193 140.514 73.1839 140.693 73.111C140.87 73.0402 141.018 72.9652 141.135 72.886L141.435 73.2943C141.195 73.7173 140.901 74.1235 140.551 74.511C140.206 74.9006 139.87 75.1381 139.543 75.2277ZM135.968 73.2777C136.162 73.2777 136.395 73.2256 136.668 73.1193C136.939 73.0152 137.179 72.8756 137.385 72.7027L137.451 70.8277L135.335 71.4193C135.018 71.5027 134.86 71.7235 134.86 72.0777C134.86 72.4173 134.962 72.7027 135.168 72.936C135.372 73.1652 135.639 73.2777 135.968 73.2777Z" fill="#F1F3F5"/>
<path d="M144.89 75.2277C144.411 75.2277 143.977 75.1881 143.59 75.111C143.207 75.0318 142.9 74.9527 142.673 74.8693C142.45 74.7818 142.315 74.7235 142.265 74.6943L142.14 74.5027C142.194 74.1485 142.244 73.7339 142.29 73.261C142.334 72.7839 142.369 72.3277 142.398 71.8943L143.482 71.7943C143.498 73.1277 144.084 73.7943 145.24 73.7943C145.623 73.7943 145.94 73.711 146.19 73.5443C146.44 73.3777 146.565 73.1693 146.565 72.9193C146.565 72.6589 146.432 72.4193 146.165 72.2027C145.902 71.986 145.377 71.686 144.59 71.3027C143.8 70.936 143.227 70.5485 142.873 70.136C142.517 69.7193 142.34 69.2339 142.34 68.6777C142.34 68.0902 142.509 67.5673 142.848 67.111C143.192 66.6568 143.673 66.3006 144.29 66.0443C144.911 65.7902 145.617 65.661 146.407 65.661C146.79 65.661 147.144 65.6902 147.473 65.7443C147.8 65.7943 148.059 65.8506 148.248 65.911C148.442 65.9673 148.565 66.0027 148.615 66.0193L148.715 66.211C148.686 66.3568 148.627 66.6839 148.54 67.1943C148.457 67.7006 148.39 68.2235 148.34 68.761L147.232 68.836L147.257 68.486C147.257 68.0256 147.142 67.686 146.915 67.4693C146.692 67.2527 146.344 67.1443 145.873 67.1443C145.527 67.1443 145.236 67.2277 144.998 67.3943C144.765 67.5568 144.648 67.761 144.648 68.011C144.648 68.261 144.752 68.4923 144.965 68.7027C145.175 68.9089 145.525 69.1318 146.015 69.3693C146.786 69.736 147.377 70.0673 147.79 70.361C148.207 70.6506 148.498 70.9423 148.665 71.236C148.832 71.5318 148.915 71.8839 148.915 72.2943C148.915 72.8339 148.736 73.3277 148.382 73.7777C148.025 74.2235 147.536 74.5756 146.915 74.836C146.298 75.0964 145.623 75.2277 144.89 75.2277Z" fill="#F1F3F5"/>
<path d="M56.5829 81.0177C56.7371 81.0177 56.8788 81.0802 57.0079 81.201C57.1413 81.3177 57.2079 81.4656 57.2079 81.6427C57.2079 81.6989 57.1954 81.7635 57.1746 81.8343L55.2829 87.401C55.2496 87.5135 55.1829 87.601 55.0829 87.6677C54.9871 87.7302 54.8829 87.7635 54.7663 87.7677C54.6538 87.7677 54.5454 87.7385 54.4413 87.676C54.3413 87.6093 54.26 87.5156 54.1996 87.3927L52.8413 84.2927L51.4663 87.3927C51.41 87.5156 51.3288 87.6093 51.2246 87.676C51.1246 87.7385 51.0163 87.7677 50.8996 87.7677C50.7829 87.7635 50.6767 87.7302 50.5829 87.6677C50.4871 87.601 50.4204 87.5135 50.3829 87.401L48.4913 81.8343C48.4684 81.7635 48.4579 81.6989 48.4579 81.6427C48.4579 81.4656 48.5246 81.3177 48.6579 81.201C48.7913 81.0802 48.935 81.0177 49.0913 81.0177C49.2246 81.0177 49.3413 81.051 49.4413 81.1177C49.5413 81.1843 49.61 81.276 49.6496 81.3927L51.0829 85.7343L52.3329 82.7343C52.3829 82.6239 52.4538 82.5343 52.5496 82.4677C52.6434 82.3968 52.7517 82.3656 52.8746 82.376C52.9954 82.3656 53.1038 82.3968 53.1996 82.4677C53.2934 82.5343 53.3663 82.6239 53.4163 82.7343L54.5996 85.701L56.0163 81.3927C56.0538 81.276 56.1267 81.1843 56.2329 81.1177C56.3371 81.051 56.4538 81.0177 56.5829 81.0177Z" fill="#FF8585"/>
<path d="M62.8725 85.076C62.8662 85.2322 62.8058 85.3593 62.6891 85.4593C62.5725 85.5552 62.4391 85.601 62.2891 85.601H59.1141C59.1912 85.9802 59.3662 86.276 59.6391 86.4927C59.9162 86.7052 60.2308 86.8093 60.5808 86.8093C60.8412 86.8093 61.0433 86.7885 61.1891 86.7427C61.3391 86.6927 61.4558 86.6406 61.5391 86.5843C61.6266 86.5302 61.6891 86.4906 61.7225 86.4677C61.8329 86.4135 61.9412 86.3843 62.0475 86.3843C62.1808 86.3843 62.2933 86.4343 62.3891 86.5343C62.4891 86.6302 62.5391 86.7406 62.5391 86.8677C62.5391 87.0406 62.4475 87.1968 62.2641 87.3343C62.085 87.4843 61.8475 87.6135 61.5475 87.7177C61.2475 87.8177 60.9412 87.8677 60.6308 87.8677C60.0975 87.8677 59.6308 87.7572 59.2308 87.5343C58.8308 87.3072 58.5183 86.9968 58.2975 86.601C58.0808 86.2072 57.9725 85.7635 57.9725 85.2677C57.9725 84.7177 58.085 84.2385 58.3141 83.826C58.5475 83.4093 58.8516 83.0906 59.2308 82.8677C59.6079 82.6468 60.01 82.5343 60.4391 82.5343C60.86 82.5343 61.2579 82.651 61.6308 82.8843C62.0079 83.1135 62.3079 83.4239 62.5308 83.8177C62.7579 84.2072 62.8725 84.626 62.8725 85.076ZM60.4391 83.5927C59.6996 83.5927 59.2641 83.9406 59.1308 84.6343H61.6391V84.5677C61.6162 84.301 61.485 84.0739 61.2475 83.8843C61.0141 83.6906 60.7433 83.5927 60.4391 83.5927Z" fill="#FF8585"/>
<path d="M66.7688 82.5343C67.2063 82.5343 67.6043 82.6489 67.9605 82.876C68.3209 83.1052 68.6043 83.4218 68.8105 83.826C69.0209 84.226 69.1272 84.6822 69.1272 85.1927C69.1272 85.7052 69.023 86.1656 68.8188 86.576C68.6188 86.9822 68.3397 87.2989 67.9855 87.526C67.6293 87.7552 67.2376 87.8677 66.8105 87.8677C66.498 87.8677 66.2063 87.8052 65.9355 87.6843C65.6626 87.5572 65.4376 87.401 65.2605 87.2177V87.276C65.2605 87.4427 65.2043 87.5843 65.0938 87.701C64.9876 87.8114 64.8522 87.8677 64.6855 87.8677C64.5188 87.8677 64.3793 87.8114 64.2688 87.701C64.1626 87.5906 64.1105 87.4489 64.1105 87.276V81.251C64.1105 81.0843 64.1626 80.9468 64.2688 80.8343C64.3793 80.7239 64.5188 80.6677 64.6855 80.6677C64.8522 80.6677 64.9876 80.7239 65.0938 80.8343C65.2043 80.9468 65.2605 81.0843 65.2605 81.251V83.2593C65.4147 83.0656 65.6293 82.8968 65.9022 82.751C66.1793 82.6072 66.4688 82.5343 66.7688 82.5343ZM66.6272 86.8093C67.0313 86.8093 67.3647 86.6572 67.6272 86.351C67.8938 86.0406 68.0272 85.6552 68.0272 85.1927C68.0272 84.7322 67.8959 84.351 67.6355 84.051C67.3793 83.7468 67.0438 83.5927 66.6272 83.5927C66.2105 83.5927 65.8688 83.7468 65.6022 84.051C65.3397 84.351 65.2105 84.7322 65.2105 85.1927C65.2105 85.6552 65.3397 86.0406 65.6022 86.351C65.8688 86.6572 66.2105 86.8093 66.6272 86.8093Z" fill="#FF8585"/>
<path d="M76.3111 81.051C76.9111 81.051 77.4278 81.201 77.8611 81.501C78.2944 81.7968 78.6236 82.1989 78.8528 82.7093C79.0798 83.2156 79.1944 83.7822 79.1944 84.4093C79.1944 85.0385 79.0798 85.6072 78.8528 86.1177C78.6236 86.6239 78.2944 87.026 77.8611 87.326C77.4278 87.6218 76.9111 87.7677 76.3111 87.7677H74.0194C73.8528 87.7677 73.7111 87.7135 73.5944 87.601C73.4819 87.4906 73.4278 87.351 73.4278 87.1843V81.6343C73.4278 81.4677 73.4819 81.3302 73.5944 81.2177C73.7111 81.1072 73.8528 81.051 74.0194 81.051H76.3111ZM76.2111 86.6677C76.7882 86.6677 77.2215 86.4552 77.5111 86.026C77.7986 85.5989 77.9444 85.0593 77.9444 84.4093C77.9444 83.7552 77.7965 83.2156 77.5028 82.7927C77.2132 82.3656 76.7819 82.151 76.2111 82.151H74.6278V86.6677H76.2111Z" fill="#FF8585"/>
<path d="M85.0868 85.076C85.0805 85.2322 85.0201 85.3593 84.9035 85.4593C84.7868 85.5552 84.6535 85.601 84.5035 85.601H81.3285C81.4055 85.9802 81.5805 86.276 81.8535 86.4927C82.1305 86.7052 82.4451 86.8093 82.7951 86.8093C83.0555 86.8093 83.2576 86.7885 83.4035 86.7427C83.5535 86.6927 83.6701 86.6406 83.7535 86.5843C83.841 86.5302 83.9035 86.4906 83.9368 86.4677C84.0472 86.4135 84.1555 86.3843 84.2618 86.3843C84.3951 86.3843 84.5076 86.4343 84.6035 86.5343C84.7035 86.6302 84.7535 86.7406 84.7535 86.8677C84.7535 87.0406 84.6618 87.1968 84.4785 87.3343C84.2993 87.4843 84.0618 87.6135 83.7618 87.7177C83.4618 87.8177 83.1555 87.8677 82.8451 87.8677C82.3118 87.8677 81.8451 87.7572 81.4451 87.5343C81.0451 87.3072 80.7326 86.9968 80.5118 86.601C80.2951 86.2072 80.1868 85.7635 80.1868 85.2677C80.1868 84.7177 80.2993 84.2385 80.5285 83.826C80.7618 83.4093 81.066 83.0906 81.4451 82.8677C81.8222 82.6468 82.2243 82.5343 82.6535 82.5343C83.0743 82.5343 83.4722 82.651 83.8451 82.8843C84.2222 83.1135 84.5222 83.4239 84.7451 83.8177C84.9722 84.2072 85.0868 84.626 85.0868 85.076ZM82.6535 83.5927C81.9139 83.5927 81.4785 83.9406 81.3451 84.6343H83.8535V84.5677C83.8305 84.301 83.6993 84.0739 83.4618 83.8843C83.2285 83.6906 82.9576 83.5927 82.6535 83.5927Z" fill="#FF8585"/>
<path d="M90.2665 82.6427C90.4207 82.6427 90.5498 82.6927 90.6498 82.7927C90.754 82.8927 90.8082 83.0156 90.8082 83.1593C90.8082 83.2385 90.7832 83.3343 90.7332 83.451L88.9332 87.401C88.8873 87.5135 88.8207 87.601 88.7332 87.6677C88.6498 87.7302 88.5519 87.7635 88.4415 87.7677L88.3582 87.776C88.2519 87.776 88.1519 87.7427 88.0582 87.676C87.9623 87.6093 87.8915 87.5177 87.8415 87.401L86.0582 83.451C86.0123 83.3468 85.9915 83.2427 85.9915 83.1427C85.9915 83.0156 86.0436 82.8989 86.1498 82.7927C86.2603 82.6885 86.3957 82.6343 86.5582 82.6343C86.6748 82.6343 86.7832 82.6677 86.8832 82.7343C86.9873 82.7968 87.0665 82.8823 87.1165 82.9927L88.4415 86.026L89.7582 83.0093C89.8123 82.8885 89.8853 82.7968 89.9748 82.7343C90.0623 82.6677 90.1603 82.6385 90.2665 82.6427Z" fill="#FF8585"/>
<path d="M96.6068 85.076C96.6005 85.2322 96.5401 85.3593 96.4234 85.4593C96.3068 85.5552 96.1734 85.601 96.0234 85.601H92.8484C92.9255 85.9802 93.1005 86.276 93.3734 86.4927C93.6505 86.7052 93.9651 86.8093 94.3151 86.8093C94.5755 86.8093 94.7776 86.7885 94.9234 86.7427C95.0734 86.6927 95.1901 86.6406 95.2734 86.5843C95.3609 86.5302 95.4234 86.4906 95.4568 86.4677C95.5672 86.4135 95.6755 86.3843 95.7818 86.3843C95.9151 86.3843 96.0276 86.4343 96.1234 86.5343C96.2234 86.6302 96.2734 86.7406 96.2734 86.8677C96.2734 87.0406 96.1818 87.1968 95.9984 87.3343C95.8193 87.4843 95.5818 87.6135 95.2818 87.7177C94.9818 87.8177 94.6755 87.8677 94.3651 87.8677C93.8318 87.8677 93.3651 87.7572 92.9651 87.5343C92.5651 87.3072 92.2526 86.9968 92.0318 86.601C91.8151 86.2072 91.7068 85.7635 91.7068 85.2677C91.7068 84.7177 91.8193 84.2385 92.0484 83.826C92.2818 83.4093 92.5859 83.0906 92.9651 82.8677C93.3422 82.6468 93.7443 82.5343 94.1734 82.5343C94.5943 82.5343 94.9922 82.651 95.3651 82.8843C95.7422 83.1135 96.0422 83.4239 96.2651 83.8177C96.4922 84.2072 96.6068 84.626 96.6068 85.076ZM94.1734 83.5927C93.4338 83.5927 92.9984 83.9406 92.8651 84.6343H95.3734V84.5677C95.3505 84.301 95.2193 84.0739 94.9818 83.8843C94.7484 83.6906 94.4776 83.5927 94.1734 83.5927Z" fill="#FF8585"/>
<path d="M99.0948 87.1843C99.0948 87.351 99.0365 87.4906 98.9198 87.601C98.8073 87.7135 98.6698 87.7677 98.5031 87.7677C98.3469 87.7677 98.2135 87.7135 98.1031 87.601C97.9906 87.4906 97.9365 87.351 97.9365 87.1843V81.251C97.9365 81.0843 97.9906 80.9468 98.1031 80.8343C98.2198 80.7239 98.3615 80.6677 98.5281 80.6677C98.6823 80.6677 98.8156 80.7239 98.9281 80.8343C99.0385 80.9468 99.0948 81.0843 99.0948 81.251V87.1843Z" fill="#FF8585"/>
<path d="M105.649 85.201C105.649 85.7177 105.532 86.1802 105.299 86.5843C105.069 86.9906 104.757 87.3072 104.357 87.5343C103.957 87.7572 103.517 87.8677 103.04 87.8677C102.551 87.8677 102.107 87.7572 101.707 87.5343C101.311 87.3072 100.999 86.9906 100.765 86.5843C100.536 86.1802 100.424 85.7177 100.424 85.201C100.424 84.6906 100.536 84.2322 100.765 83.826C100.999 83.4218 101.311 83.1052 101.707 82.876C102.107 82.6489 102.551 82.5343 103.04 82.5343C103.517 82.5343 103.957 82.6489 104.357 82.876C104.757 83.1052 105.069 83.4218 105.299 83.826C105.532 84.2322 105.649 84.6906 105.649 85.201ZM104.499 85.201C104.499 84.8906 104.432 84.6135 104.299 84.3677C104.169 84.1177 103.994 83.926 103.774 83.7927C103.551 83.6593 103.307 83.5927 103.04 83.5927C102.767 83.5927 102.519 83.6593 102.299 83.7927C102.082 83.926 101.907 84.1177 101.774 84.3677C101.644 84.6135 101.582 84.8906 101.582 85.201C101.582 85.5177 101.644 85.7989 101.774 86.0427C101.907 86.2822 102.082 86.4718 102.299 86.6093C102.519 86.7427 102.767 86.8093 103.04 86.8093C103.307 86.8093 103.551 86.7427 103.774 86.6093C103.994 86.4718 104.169 86.2822 104.299 86.0427C104.432 85.7989 104.499 85.5177 104.499 85.201Z" fill="#FF8585"/>
<path d="M109.546 82.5343C109.984 82.5343 110.382 82.6489 110.738 82.876C111.098 83.1052 111.382 83.4218 111.588 83.826C111.798 84.226 111.905 84.6822 111.905 85.1927C111.905 85.7052 111.8 86.1656 111.596 86.576C111.396 86.9822 111.117 87.2989 110.763 87.526C110.407 87.7552 110.015 87.8677 109.588 87.8677C109.276 87.8677 108.984 87.8052 108.713 87.6843C108.44 87.5572 108.215 87.401 108.038 87.2177V89.101C108.038 89.2677 107.982 89.4052 107.871 89.5177C107.765 89.6281 107.63 89.6843 107.463 89.6843C107.296 89.6843 107.157 89.6281 107.046 89.5177C106.94 89.4114 106.888 89.2718 106.888 89.101V83.2177C106.888 83.051 106.94 82.9135 107.046 82.801C107.157 82.6906 107.296 82.6343 107.463 82.6343C107.63 82.6343 107.765 82.6906 107.871 82.801C107.982 82.9135 108.038 83.051 108.038 83.2177V83.2593C108.192 83.0656 108.407 82.8968 108.68 82.751C108.957 82.6072 109.246 82.5343 109.546 82.5343ZM109.405 86.8093C109.809 86.8093 110.142 86.6572 110.405 86.351C110.671 86.0406 110.805 85.6552 110.805 85.1927C110.805 84.7322 110.673 84.351 110.413 84.051C110.157 83.7468 109.821 83.5927 109.405 83.5927C108.988 83.5927 108.646 83.7468 108.38 84.051C108.117 84.351 107.988 84.7322 107.988 85.1927C107.988 85.6552 108.117 86.0406 108.38 86.351C108.646 86.6572 108.988 86.8093 109.405 86.8093Z" fill="#FF8585"/>
<path d="M117.755 85.076C117.749 85.2322 117.689 85.3593 117.572 85.4593C117.455 85.5552 117.322 85.601 117.172 85.601H113.997C114.074 85.9802 114.249 86.276 114.522 86.4927C114.799 86.7052 115.114 86.8093 115.464 86.8093C115.724 86.8093 115.926 86.7885 116.072 86.7427C116.222 86.6927 116.339 86.6406 116.422 86.5843C116.51 86.5302 116.572 86.4906 116.605 86.4677C116.716 86.4135 116.824 86.3843 116.93 86.3843C117.064 86.3843 117.176 86.4343 117.272 86.5343C117.372 86.6302 117.422 86.7406 117.422 86.8677C117.422 87.0406 117.33 87.1968 117.147 87.3343C116.968 87.4843 116.73 87.6135 116.43 87.7177C116.13 87.8177 115.824 87.8677 115.514 87.8677C114.98 87.8677 114.514 87.7572 114.114 87.5343C113.714 87.3072 113.401 86.9968 113.18 86.601C112.964 86.2072 112.855 85.7635 112.855 85.2677C112.855 84.7177 112.968 84.2385 113.197 83.826C113.43 83.4093 113.735 83.0906 114.114 82.8677C114.491 82.6468 114.893 82.5343 115.322 82.5343C115.743 82.5343 116.141 82.651 116.514 82.8843C116.891 83.1135 117.191 83.4239 117.414 83.8177C117.641 84.2072 117.755 84.626 117.755 85.076ZM115.322 83.5927C114.583 83.5927 114.147 83.9406 114.014 84.6343H116.522V84.5677C116.499 84.301 116.368 84.0739 116.13 83.8843C115.897 83.6906 115.626 83.5927 115.322 83.5927Z" fill="#FF8585"/>
<path d="M121.66 82.5343C121.854 82.5343 122.014 82.5906 122.144 82.701C122.277 82.8072 122.344 82.9343 122.344 83.0843C122.344 83.2843 122.289 83.4343 122.185 83.5343C122.085 83.6302 121.964 83.676 121.827 83.676C121.727 83.676 121.619 83.6552 121.502 83.6093C121.479 83.6052 121.435 83.5927 121.369 83.576C121.302 83.5552 121.229 83.5427 121.152 83.5427C120.985 83.5427 120.823 83.5968 120.669 83.701C120.519 83.801 120.394 83.9572 120.294 84.1677C120.194 84.3739 120.144 84.6218 120.144 84.9093V87.1843C120.144 87.351 120.087 87.4906 119.977 87.601C119.871 87.7135 119.735 87.7677 119.569 87.7677C119.402 87.7677 119.262 87.7135 119.152 87.601C119.046 87.4906 118.994 87.351 118.994 87.1843V83.2177C118.994 83.051 119.046 82.9135 119.152 82.801C119.262 82.6906 119.402 82.6343 119.569 82.6343C119.735 82.6343 119.871 82.6906 119.977 82.801C120.087 82.9135 120.144 83.051 120.144 83.2177V83.3427C120.294 83.0822 120.504 82.8822 120.777 82.7427C121.054 82.6052 121.348 82.5343 121.66 82.5343Z" fill="#FF8585"/>
<mask id="mask0_84_951" style="mask-type:luminance" maskUnits="userSpaceOnUse" x="53" y="13" width="64" height="44">
<path d="M53.7375 13H116.619V56.2H53.7375V13Z" fill="white"/>
</mask>
<g mask="url(#mask0_84_951)">
<path d="M108.935 54.2604H61.7375C58.9334 54.2604 56.6042 52.2125 56.1438 49.5271H114.523C114.075 52.2125 111.74 54.2604 108.935 54.2604ZM59.7229 16.1083C59.7229 15.4271 60.2542 14.8875 60.9354 14.8875H109.727C110.406 14.8875 110.944 15.4271 110.944 16.1083V47.6166H59.7229V16.1083ZM115.546 47.6271H112.842V16.1083C112.842 14.3937 111.452 12.9958 109.733 12.9958H60.9354C59.225 12.9958 57.8313 14.3937 57.8313 16.1083V47.6166H55.1271C54.6 47.6271 54.1813 48.05 54.1813 48.5771C54.1813 52.7562 57.5709 56.1604 61.7375 56.1604H108.935C113.102 56.1604 116.492 52.7562 116.492 48.5771C116.492 48.05 116.077 47.6271 115.546 47.6271Z" fill="#FF8585"/>
</g>
<path d="M105.527 43.3979H65.1459V19.1687H105.523V43.3979H105.527ZM106.475 17.275H64.1979C63.6729 17.275 63.2521 17.6958 63.2521 18.225V44.3479C63.2521 44.875 63.6729 45.2958 64.1979 45.2958H106.463C106.988 45.2958 107.408 44.875 107.408 44.3479V18.225C107.421 17.6958 106.988 17.275 106.475 17.275Z" fill="#FF8585"/>
<path d="M82.675 38.8062C82.7854 38.8458 82.8854 38.8625 82.9917 38.8625C83.3792 38.8625 83.7375 38.6187 83.8771 38.2291L88.5167 24.9625C88.6938 24.4625 88.4292 23.925 87.9479 23.7521C87.45 23.575 86.9125 23.8416 86.7354 24.3291L82.0938 37.5979C81.9292 38.0916 82.1938 38.6291 82.675 38.8062ZM97.4292 31.4791L91.1125 36.5041C90.7021 36.825 90.6313 37.4187 90.9563 37.8291C91.1396 38.0625 91.4208 38.1916 91.6917 38.1916C91.8979 38.1916 92.1021 38.125 92.2792 37.9854L99.525 32.2291C99.7479 32.0562 99.8854 31.7791 99.8854 31.4958C99.8854 31.2125 99.7521 30.9416 99.5313 30.7583L91.9854 24.5791C91.5771 24.2521 90.9854 24.3083 90.6646 24.7187C90.3313 25.1291 90.3917 25.7229 90.7958 26.0458L97.4292 31.4791ZM78.3938 37.9854C78.5708 38.125 78.775 38.1916 78.9813 38.1916C79.2625 38.1916 79.5333 38.0625 79.7167 37.8291C80.0417 37.4187 79.9708 36.825 79.5604 36.5041L73.2438 31.4791L79.8771 26.0458C80.2813 25.7187 80.3417 25.1187 80.0083 24.7187C79.6833 24.3083 79.0854 24.2521 78.6875 24.5791L71.1417 30.7583C70.9208 30.9416 70.7875 31.2021 70.7875 31.4958C70.7875 31.7791 70.925 32.0562 71.1521 32.2291L78.3938 37.9854Z" fill="#FF8585"/>
</g>
<defs>
<clipPath id="clip0_84_951">
<rect width="170" height="102" fill="white"/>
</clipPath>
</defs>
</svg>
