<svg width="162" height="171" viewBox="0 0 162 171" fill="none" xmlns="http://www.w3.org/2000/svg">
<path d="M28.4486 16.7886C36.7266 10.0126 47.4029 6.84473 57.4781 7.23465C62.1353 7.44773 66.6624 8.24718 70.951 10.1215C74.9922 11.8385 78.7516 14.8258 82.0193 17.9091C83.5742 19.382 84.9962 21.0304 86.3284 22.6589C88.0224 24.7778 89.7163 26.8967 91.1875 29.1713C93.9722 33.5828 95.1979 39.0839 95.6166 44.406C96.0599 50.0411 95.5413 55.7704 94.5961 61.3025C93.5208 67.4209 91.9321 73.733 89.5334 79.4553C87.0016 85.353 82.9207 90.5995 77.208 93.0232C72.2315 95.0975 66.7643 94.2945 62.9094 90.4657C59.4377 87.0296 57.5872 81.8 57.3942 76.7331C57.22 71.1577 59.2413 65.8643 62.7249 61.6132C70.0697 52.682 82.4224 49.1684 92.8779 49.5402C98.2959 49.717 103.856 50.9506 108.577 53.8437C113.613 57.0119 117.14 61.8957 119.108 67.8691C121.168 74.2732 121.778 81.2781 122.363 87.97C123.019 95.1903 123.385 102.449 123.28 109.705C123.182 124.141 121.742 138.688 119.046 152.957C118.355 156.495 117.596 159.915 116.726 163.414C115.943 166.521 111.459 165.526 112.242 162.419C118.635 136.153 120.274 108.833 117.13 82.2974C116.439 76.5049 115.656 70.2817 112.911 65.2638C110.507 60.8341 106.568 57.807 102.125 56.2059C97.4127 54.5451 92.3289 54.1349 87.4085 54.6836C82.6892 55.1745 77.7965 56.4471 73.4939 58.876C69.3028 61.2271 65.5442 64.597 63.384 69.2443C61.5983 73.0519 61.6769 77.7858 62.9589 81.7614C64.2842 85.5416 66.9024 88.5834 70.5328 89.1838C75.0816 89.8855 79.4679 86.6549 82.2834 82.8707C85.8971 78.0333 87.4396 71.5058 88.9199 65.6823C90.072 60.9139 90.7974 55.9482 91.0528 50.9808C91.1968 46.0912 90.8925 41.1021 89.3819 36.4606C87.9177 32.0344 84.8481 28.4824 82.0476 24.9901C79.3831 21.733 76.2081 19.0804 72.767 16.7789C69.5949 14.5371 66.342 13.5078 62.5539 12.7698C54.1491 11.2126 44.7135 12.605 36.7983 16.8982C34.6579 18.0638 32.7648 19.3868 30.8284 20.9053C29.8045 21.7034 28.3017 21.2674 27.6897 20.2089C27.0098 19.0327 27.4247 17.5868 28.4486 16.7886Z" fill="#FF9D9D"/>
<path d="M99.9515 115.192C102.276 127.192 105.516 138.882 109.47 150.32C110.452 153.101 111.503 156 112.596 158.703C113.029 159.722 113.396 161.034 114.141 161.917C114.661 162.545 114.883 162.389 115.484 161.805C116.418 160.987 117.194 160.031 117.971 159.076C118.97 157.965 119.901 156.736 120.833 155.507C122.652 153.245 124.313 150.845 125.907 148.328C129.404 142.746 132.427 136.753 134.823 130.62C135.284 129.389 136.982 128.946 137.971 129.575C139.14 130.245 139.396 131.634 138.824 132.943C136.45 138.978 133.559 144.796 130.084 150.28C128.336 153.07 126.498 155.841 124.524 158.377C122.683 160.737 120.799 163.292 118.665 165.279C116.286 167.52 113.245 168.075 110.946 165.719C108.893 163.521 107.973 160.036 106.901 157.235C104.596 151.084 102.514 144.778 100.722 138.433C98.7241 131.325 96.9269 124.159 95.5317 116.878C95.2538 115.586 95.8481 114.179 97.076 113.734C98.2359 113.171 99.7633 113.92 99.9515 115.192Z" fill="#FF9D9D"/>
</svg>
